<svg width="236" height="23" viewBox="0 0 236 23" fill="none" xmlns="http://www.w3.org/2000/svg">
<path d="M7.96008 21.5944C7.6906 22.3185 7.22419 22.6806 6.56085 22.6806H0.684069C0.497505 22.6806 0.33167 22.6167 0.186564 22.4889C0.0621881 22.3398 0 22.1694 0 21.9778L0.0310941 21.7861L6.8096 1.37361C6.89252 1.09676 7.04799 0.851852 7.27601 0.638888C7.50403 0.425926 7.81497 0.319444 8.20883 0.319444H16.853C17.2468 0.319444 17.5578 0.425926 17.7858 0.638888C18.0138 0.851852 18.1693 1.09676 18.2522 1.37361L25.0307 21.7861L25.0618 21.9778C25.0618 22.1694 24.9893 22.3398 24.8442 22.4889C24.7198 22.6167 24.5643 22.6806 24.3777 22.6806H18.501C17.8376 22.6806 17.3712 22.3185 17.1017 21.5944L16.3244 19.3583H8.73743L7.96008 21.5944ZM12.5309 6.48472L10.3232 13.1292H14.7386L12.5309 6.48472Z" fill="white"/>
<path d="M50.0493 9.2C50.2773 9.2 50.4742 9.28519 50.6401 9.45556C50.8059 9.62593 50.8888 9.82824 50.8888 10.0625V13.4486C50.8888 16.6856 49.8109 19.0921 47.655 20.6681C45.5199 22.2227 42.6904 23 39.1664 23C35.6424 23 32.8025 22.2227 30.6466 20.6681C28.5115 19.0921 27.4439 16.6644 27.4439 13.3847V9.61528C27.4439 7.44306 27.9621 5.64352 28.9986 4.21667C30.0351 2.76852 31.4343 1.7037 33.1963 1.02222C34.9583 0.340741 36.9483 0 39.1664 0C41.8197 0 44.0067 0.447222 45.7272 1.34167C47.4478 2.23611 48.6915 3.24769 49.4585 4.37639C50.2462 5.50509 50.6401 6.42083 50.6401 7.12361C50.6401 7.31528 50.5675 7.48565 50.4224 7.63472C50.298 7.7625 50.1426 7.82639 49.956 7.82639H42.9287C42.5142 7.82639 42.2136 7.70926 42.027 7.475C41.3844 6.64444 40.4309 6.22917 39.1664 6.22917C38.2128 6.22917 37.4147 6.45278 36.7721 6.9C36.1502 7.34722 35.8393 7.92222 35.8393 8.625V14.0556C35.8393 14.9074 36.1502 15.5782 36.7721 16.0681C37.394 16.5366 38.1921 16.7708 39.1664 16.7708C40.4516 16.7708 41.3948 16.5472 41.9959 16.1C42.6178 15.6315 42.9391 15.0884 42.9598 14.4708H41.032C40.804 14.4708 40.6071 14.3856 40.4412 14.2153C40.2754 14.0449 40.1925 13.8426 40.1925 13.6083V10.0625C40.1925 9.82824 40.2754 9.62593 40.4412 9.45556C40.6071 9.28519 40.804 9.2 41.032 9.2H50.0493Z" fill="white"/>
<path d="M75.3477 16.4514C75.5757 16.4514 75.7727 16.5366 75.9385 16.7069C76.1043 16.8773 76.1872 17.0796 76.1872 17.3139V21.8181C76.1872 22.0523 76.1043 22.2546 75.9385 22.425C75.7727 22.5954 75.5757 22.6806 75.3477 22.6806H55.6963C55.4682 22.6806 55.2713 22.5954 55.1055 22.425C54.9396 22.2546 54.8567 22.0523 54.8567 21.8181V1.18194C54.8567 0.947686 54.9396 0.745371 55.1055 0.575C55.2713 0.404629 55.4682 0.319444 55.6963 0.319444H75.0368C75.2648 0.319444 75.4617 0.404629 75.6275 0.575C75.7934 0.745371 75.8763 0.947686 75.8763 1.18194V5.68611C75.8763 5.92037 75.7934 6.12269 75.6275 6.29306C75.4617 6.46343 75.2648 6.54861 75.0368 6.54861H62.9412V8.56111H73.3266C73.5546 8.56111 73.7515 8.6463 73.9174 8.81667C74.0832 8.98704 74.1661 9.18935 74.1661 9.42361V13.5764C74.1661 13.8106 74.0832 14.013 73.9174 14.1833C73.7515 14.3537 73.5546 14.4389 73.3266 14.4389H62.9412V16.4514H75.3477Z" fill="white"/>
<path d="M101.423 0.319444C101.651 0.319444 101.848 0.404629 102.014 0.575C102.18 0.745371 102.263 0.947686 102.263 1.18194V21.8181C102.263 22.0523 102.18 22.2546 102.014 22.425C101.848 22.5954 101.651 22.6806 101.423 22.6806H96.4173C95.9198 22.6806 95.5052 22.4569 95.1736 22.0097L88.3951 13.1292V21.8181C88.3951 22.0523 88.3121 22.2546 88.1463 22.425C87.9805 22.5954 87.7835 22.6806 87.5555 22.6806H81.772C81.544 22.6806 81.3471 22.5954 81.1812 22.425C81.0154 22.2546 80.9325 22.0523 80.9325 21.8181V1.18194C80.9325 0.947686 81.0154 0.745371 81.1812 0.575C81.3471 0.404629 81.544 0.319444 81.772 0.319444H86.8093C87.3068 0.319444 87.711 0.532408 88.0219 0.958334L94.8004 10.5736V1.18194C94.8004 0.947686 94.8834 0.745371 95.0492 0.575C95.215 0.404629 95.412 0.319444 95.64 0.319444H101.423Z" fill="white"/>
<path d="M115.248 14.0556C115.248 14.9287 115.528 15.5995 116.088 16.0681C116.668 16.5366 117.446 16.7708 118.42 16.7708C119.29 16.7708 119.933 16.6218 120.348 16.3236C120.762 16.0255 121.115 15.5782 121.405 14.9819C121.674 14.4282 122.037 14.1514 122.493 14.1514H129.209C129.396 14.1514 129.551 14.2259 129.676 14.375C129.821 14.5028 129.893 14.6625 129.893 14.8542C129.893 16.1532 129.469 17.431 128.619 18.6875C127.769 19.9227 126.473 20.9556 124.732 21.7861C123.011 22.5954 120.907 23 118.42 23C116.202 23 114.222 22.6593 112.481 21.9778C110.76 21.275 109.392 20.2102 108.376 18.7833C107.361 17.3352 106.853 15.5356 106.853 13.3847V9.61528C106.853 7.46435 107.361 5.67546 108.376 4.24861C109.392 2.80046 110.76 1.73565 112.481 1.05417C114.222 0.351389 116.202 0 118.42 0C120.907 0 123.011 0.415278 124.732 1.24583C126.473 2.05509 127.769 3.08796 128.619 4.34445C129.469 5.57963 129.893 6.84676 129.893 8.14583C129.893 8.3375 129.821 8.50787 129.676 8.65695C129.551 8.78472 129.396 8.84861 129.209 8.84861H122.493C122.037 8.84861 121.674 8.57176 121.405 8.01806C121.115 7.42176 120.762 6.97454 120.348 6.67639C119.933 6.37824 119.29 6.22917 118.42 6.22917C117.446 6.22917 116.668 6.46343 116.088 6.93194C115.528 7.40046 115.248 8.0713 115.248 8.94444V14.0556Z" fill="white"/>
<path d="M155.907 0.319444C156.094 0.319444 156.249 0.393981 156.373 0.543056C156.519 0.670834 156.591 0.819908 156.591 0.990278C156.591 1.11806 156.56 1.24583 156.498 1.37361L148.662 14.6944V21.8181C148.662 22.0523 148.579 22.2546 148.413 22.425C148.248 22.5954 148.051 22.6806 147.823 22.6806H141.2C140.972 22.6806 140.775 22.5954 140.609 22.425C140.443 22.2546 140.36 22.0523 140.36 21.8181V14.6944L132.555 1.37361C132.493 1.24583 132.462 1.1287 132.462 1.02222C132.462 0.830556 132.524 0.670834 132.649 0.543056C132.794 0.393981 132.96 0.319444 133.146 0.319444H139.707C140.287 0.319444 140.712 0.564352 140.982 1.05417L144.496 7.37917L148.102 1.11806C148.413 0.585648 148.849 0.319444 149.408 0.319444H155.907Z" fill="white"/>
<path d="M170.851 0.319444C174.354 0.319444 177.153 1.09676 179.247 2.65139C181.361 4.20602 182.418 6.6125 182.418 9.87083V13.1292C182.418 16.4514 181.371 18.8792 179.278 20.4125C177.205 21.9245 174.396 22.6806 170.851 22.6806H160.932C160.704 22.6806 160.507 22.5954 160.341 22.425C160.176 22.2546 160.093 22.0523 160.093 21.8181V1.18194C160.093 0.947686 160.176 0.745371 160.341 0.575C160.507 0.404629 160.704 0.319444 160.932 0.319444H170.851ZM171.007 16.4514C171.981 16.4514 172.748 16.2171 173.308 15.7486C173.888 15.2588 174.178 14.5773 174.178 13.7042V9.29583C174.178 8.42269 173.888 7.75185 173.308 7.28333C172.748 6.79352 171.981 6.54861 171.007 6.54861H168.177V16.4514H171.007Z" fill="white"/>
<path d="M207.437 16.4514C207.665 16.4514 207.862 16.5366 208.028 16.7069C208.193 16.8773 208.276 17.0796 208.276 17.3139V21.8181C208.276 22.0523 208.193 22.2546 208.028 22.425C207.862 22.5954 207.665 22.6806 207.437 22.6806H187.785C187.557 22.6806 187.36 22.5954 187.194 22.425C187.029 22.2546 186.946 22.0523 186.946 21.8181V1.18194C186.946 0.947686 187.029 0.745371 187.194 0.575C187.36 0.404629 187.557 0.319444 187.785 0.319444H207.126C207.354 0.319444 207.551 0.404629 207.717 0.575C207.882 0.745371 207.965 0.947686 207.965 1.18194V5.68611C207.965 5.92037 207.882 6.12269 207.717 6.29306C207.551 6.46343 207.354 6.54861 207.126 6.54861H195.03V8.56111H205.416C205.644 8.56111 205.841 8.6463 206.006 8.81667C206.172 8.98704 206.255 9.18935 206.255 9.42361V13.5764C206.255 13.8106 206.172 14.013 206.006 14.1833C205.841 14.3537 205.644 14.4389 205.416 14.4389H195.03V16.4514H207.437Z" fill="white"/>
<path d="M235.316 0.319444C235.503 0.319444 235.658 0.393981 235.782 0.543056C235.927 0.670834 236 0.830556 236 1.02222L235.969 1.24583L228.817 21.6264C228.714 21.9245 228.548 22.1801 228.32 22.3931C228.092 22.5847 227.791 22.6806 227.418 22.6806H220.173C219.8 22.6806 219.499 22.5847 219.271 22.3931C219.043 22.1801 218.888 21.9565 218.805 21.7222L211.591 1.24583L211.56 1.02222C211.56 0.830556 211.622 0.670834 211.747 0.543056C211.892 0.393981 212.058 0.319444 212.244 0.319444H218.805C219.178 0.319444 219.479 0.436574 219.707 0.670834C219.955 0.883797 220.121 1.11806 220.204 1.37361L223.78 13.6083L227.356 1.37361C227.439 1.09676 227.594 0.851852 227.822 0.638888C228.05 0.425926 228.361 0.319444 228.755 0.319444H235.316Z" fill="white"/>
</svg>
