<svg width="140" height="33" viewBox="0 0 140 33" fill="none" xmlns="http://www.w3.org/2000/svg">
<path d="M14.57 3.94V8.05H5.99V12.49H12.41V16.48H5.99V25H0.86V3.94H14.57ZM27.2263 25.21C25.2463 25.21 23.4263 24.75 21.7663 23.83C20.1263 22.91 18.8163 21.63 17.8363 19.99C16.8762 18.33 16.3962 16.47 16.3962 14.41C16.3962 12.35 16.8762 10.5 17.8363 8.86C18.8163 7.22 20.1263 5.94 21.7663 5.02C23.4263 4.1 25.2463 3.64 27.2263 3.64C29.2063 3.64 31.0163 4.1 32.6563 5.02C34.3163 5.94 35.6163 7.22 36.5563 8.86C37.5163 10.5 37.9963 12.35 37.9963 14.41C37.9963 16.47 37.5163 18.33 36.5563 19.99C35.5963 21.63 34.2963 22.91 32.6563 23.83C31.0163 24.75 29.2063 25.21 27.2263 25.21ZM27.2263 20.53C28.9063 20.53 30.2463 19.97 31.2462 18.85C32.2663 17.73 32.7763 16.25 32.7763 14.41C32.7763 12.55 32.2663 11.07 31.2462 9.97C30.2463 8.85 28.9063 8.29 27.2263 8.29C25.5263 8.29 24.1663 8.84 23.1463 9.94C22.1463 11.04 21.6463 12.53 21.6463 14.41C21.6463 16.27 22.1463 17.76 23.1463 18.88C24.1663 19.98 25.5263 20.53 27.2263 20.53ZM45.9802 10.63C46.4802 9.85 47.1702 9.22 48.0502 8.74C48.9302 8.26 49.9602 8.02 51.1402 8.02C52.5202 8.02 53.7702 8.37 54.8902 9.07C56.0102 9.77 56.8902 10.77 57.5302 12.07C58.1902 13.37 58.5202 14.88 58.5202 16.6C58.5202 18.32 58.1902 19.84 57.5302 21.16C56.8902 22.46 56.0102 23.47 54.8902 24.19C53.7702 24.89 52.5202 25.24 51.1402 25.24C49.9802 25.24 48.9502 25 48.0502 24.52C47.1702 24.04 46.4802 23.42 45.9802 22.66V32.98H40.8502V8.26H45.9802V10.63ZM53.3002 16.6C53.3002 15.32 52.9402 14.32 52.2202 13.6C51.5202 12.86 50.6502 12.49 49.6102 12.49C48.5902 12.49 47.7202 12.86 47.0002 13.6C46.3002 14.34 45.9502 15.35 45.9502 16.63C45.9502 17.91 46.3002 18.92 47.0002 19.66C47.7202 20.4 48.5902 20.77 49.6102 20.77C50.6302 20.77 51.5002 20.4 52.2202 19.66C52.9402 18.9 53.3002 17.88 53.3002 16.6ZM70.5416 20.65V25H67.9316C66.0716 25 64.6216 24.55 63.5816 23.65C62.5416 22.73 62.0216 21.24 62.0216 19.18V12.52H59.9816V8.26H62.0216V4.18H67.1516V8.26H70.5116V12.52H67.1516V19.24C67.1516 19.74 67.2716 20.1 67.5116 20.32C67.7516 20.54 68.1516 20.65 68.7116 20.65H70.5416ZM75.9791 6.52C75.0791 6.52 74.3391 6.26 73.7591 5.74C73.1991 5.2 72.9191 4.54 72.9191 3.76C72.9191 2.96 73.1991 2.3 73.7591 1.78C74.3391 1.24 75.0791 0.969998 75.9791 0.969998C76.8591 0.969998 77.5791 1.24 78.1391 1.78C78.7191 2.3 79.0091 2.96 79.0091 3.76C79.0091 4.54 78.7191 5.2 78.1391 5.74C77.5791 6.26 76.8591 6.52 75.9791 6.52ZM78.5291 8.26V25H73.3991V8.26H78.5291ZM103.607 8.08C105.687 8.08 107.337 8.71 108.557 9.97C109.797 11.23 110.417 12.98 110.417 15.22V25H105.317V15.91C105.317 14.83 105.027 14 104.447 13.42C103.887 12.82 103.107 12.52 102.107 12.52C101.107 12.52 100.317 12.82 99.7367 13.42C99.1767 14 98.8967 14.83 98.8967 15.91V25H93.7967V15.91C93.7967 14.83 93.5067 14 92.9267 13.42C92.3667 12.82 91.5867 12.52 90.5867 12.52C89.5867 12.52 88.7967 12.82 88.2167 13.42C87.6567 14 87.3767 14.83 87.3767 15.91V25H82.2467V8.26H87.3767V10.36C87.8967 9.66 88.5767 9.11 89.4167 8.71C90.2567 8.29 91.2067 8.08 92.2667 8.08C93.5267 8.08 94.6467 8.35 95.6267 8.89C96.6267 9.43 97.4067 10.2 97.9667 11.2C98.5467 10.28 99.3367 9.53 100.337 8.95C101.337 8.37 102.427 8.08 103.607 8.08ZM112.985 16.6C112.985 14.88 113.305 13.37 113.945 12.07C114.605 10.77 115.495 9.77 116.615 9.07C117.735 8.37 118.985 8.02 120.365 8.02C121.545 8.02 122.575 8.26 123.455 8.74C124.355 9.22 125.045 9.85 125.525 10.63V8.26H130.655V25H125.525V22.63C125.025 23.41 124.325 24.04 123.425 24.52C122.545 25 121.515 25.24 120.335 25.24C118.975 25.24 117.735 24.89 116.615 24.19C115.495 23.47 114.605 22.46 113.945 21.16C113.305 19.84 112.985 18.32 112.985 16.6ZM125.525 16.63C125.525 15.35 125.165 14.34 124.445 13.6C123.745 12.86 122.885 12.49 121.865 12.49C120.845 12.49 119.975 12.86 119.255 13.6C118.555 14.32 118.205 15.32 118.205 16.6C118.205 17.88 118.555 18.9 119.255 19.66C119.975 20.4 120.845 20.77 121.865 20.77C122.885 20.77 123.745 20.4 124.445 19.66C125.165 18.92 125.525 17.91 125.525 16.63ZM139.496 2.8V25H134.366V2.8H139.496Z" fill="white"/>
</svg>
