<svg width="181" height="166" viewBox="0 0 181 166" fill="none" xmlns="http://www.w3.org/2000/svg">
<path d="M83.5189 165.755C80.476 165.054 78.5756 162.022 79.2769 158.968L90.589 109.953C91.2903 106.91 94.3219 104.987 97.3762 105.722C100.419 106.424 102.32 109.455 101.618 112.51L90.3062 161.525C89.5822 164.635 86.4601 166.468 83.5189 165.755Z" fill="#A2D9F0"/>
<path d="M114.955 158.368C113.405 158.368 111.867 157.735 110.747 156.502C108.654 154.172 108.847 150.608 111.166 148.516L125.351 135.756L111.166 122.996C108.847 120.903 108.654 117.328 110.747 115.009C112.851 112.69 116.414 112.509 118.733 114.591L137.59 131.559C138.778 132.634 139.457 134.161 139.457 135.767C139.457 137.373 138.778 138.9 137.59 139.975L118.733 156.943C117.659 157.882 116.313 158.368 114.955 158.368Z" fill="#A2D9F0"/>
<path d="M65.9402 158.369C64.5941 158.369 63.2366 157.893 62.1507 156.921L43.2935 139.953C42.1057 138.878 41.427 137.351 41.427 135.744C41.427 134.138 42.1057 132.611 43.2935 131.536L62.1507 114.568C64.4809 112.487 68.0442 112.679 70.1369 114.987C72.2297 117.317 72.0374 120.88 69.7184 122.973L55.5331 135.733L69.7184 148.493C72.0374 150.586 72.2297 154.16 70.1369 156.479C69.0171 157.735 67.4786 158.369 65.9402 158.369Z" fill="#A2D9F0"/>
<path d="M155.475 120.654C146.912 120.654 138.959 116.525 134.219 109.625L107.987 71.379H72.9987L46.7661 109.614C42.0264 116.525 34.0853 120.654 25.5108 120.654C18.158 120.654 11.1672 117.589 6.3256 112.238C1.69898 107.136 -0.552117 100.326 0.115294 93.5732L5.61294 38.4722C5.57901 17.6015 23.8366 0 46.2797 0C58.4175 0 69.8087 5.19223 77.5122 14.0722H103.485C111.188 5.19223 122.579 0 134.717 0C157.025 0 175.192 17.3753 175.418 38.8229L180.882 93.5732C181.56 100.338 179.298 107.136 174.671 112.238C169.83 117.589 162.828 120.654 155.475 120.654ZM69.0282 56.3113H111.969C114.457 56.3113 116.776 57.533 118.19 59.5918L146.663 101.107C150.26 106.333 159.185 106.887 163.484 102.125C165.271 100.145 166.119 97.6455 165.859 95.089L160.373 39.9654C160.35 39.7166 160.339 39.4677 160.339 39.2188C160.339 25.9159 148.846 15.0903 134.717 15.0903C126.097 15.0903 118.1 19.1513 113.326 25.9611C111.912 27.9747 109.616 29.1737 107.15 29.1737H73.8471C71.3924 29.1737 69.0848 27.9747 67.6708 25.9611C62.8971 19.14 54.8995 15.0789 46.2797 15.0789C32.151 15.0789 20.658 25.9046 20.658 39.2075L15.1264 95.0663C14.8662 97.6342 15.7146 100.134 17.5019 102.102C21.8118 106.865 30.737 106.311 34.3229 101.084L62.7953 59.5692C64.2093 57.533 66.5396 56.3113 69.0282 56.3113ZM175.418 39.2188H175.497H175.418Z" fill="#59B2D7"/>
<path d="M45.2505 60.3272C42.1284 60.3272 39.5945 57.7933 39.5945 54.6711V28.2802C39.5945 25.158 42.1284 22.6241 45.2505 22.6241C48.3726 22.6241 50.9065 25.158 50.9065 28.2802V54.6711C50.9065 57.7933 48.3726 60.3272 45.2505 60.3272Z" fill="#59B2D7"/>
<path d="M58.4514 47.1259H32.0491C28.927 47.1259 26.3931 44.592 26.3931 41.4699C26.3931 38.3477 28.927 35.8138 32.0491 35.8138H58.4401C61.5622 35.8138 64.0961 38.3477 64.0961 41.4699C64.0961 44.592 61.5735 47.1259 58.4514 47.1259Z" fill="#59B2D7"/>
<path d="M131.697 58.6754C129.491 56.4696 129.491 52.8837 131.697 50.6778C133.914 48.472 137.489 48.472 139.706 50.6778C141.912 52.8837 141.912 56.4696 139.706 58.6754C137.511 60.8587 133.925 60.9039 131.697 58.6754Z" fill="#59B2D7"/>
<path d="M131.697 32.2732C129.491 30.0674 129.491 26.4814 131.697 24.2756C133.914 22.0698 137.489 22.0698 139.706 24.2756C141.912 26.4814 141.912 30.0674 139.706 32.2732C137.511 34.4564 133.925 34.5017 131.697 32.2732Z" fill="#59B2D7"/>
<path d="M118.496 45.4743C116.29 43.2684 116.29 39.6825 118.496 37.4767C120.713 35.2708 124.287 35.2708 126.505 37.4767C128.71 39.6825 128.71 43.2684 126.505 45.4743C124.321 47.6575 120.724 47.7027 118.496 45.4743Z" fill="#59B2D7"/>
<path d="M144.887 45.4743C142.681 43.2684 142.681 39.6825 144.887 37.4767C147.104 35.2708 150.679 35.2708 152.896 37.4767C155.102 39.6825 155.102 43.2684 152.896 45.4743C150.713 47.6575 147.115 47.7027 144.887 45.4743Z" fill="#59B2D7"/>
</svg>
