<svg width="620" height="686" viewBox="0 0 620 686" fill="none" xmlns="http://www.w3.org/2000/svg">
<g opacity="0.1" filter="url(#filter0_b)">
<circle cx="335" cy="394" r="218" fill="url(#paint0_linear)"/>
</g>
<path d="M423.11 152.288H246.039C232.21 152.288 221 163.343 221 176.979V581.309C221 594.946 232.21 606 246.039 606H423.11C436.938 606 448.149 594.946 448.149 581.309V176.979C448.149 163.343 436.938 152.288 423.11 152.288Z" fill="white"/>
<path d="M417.821 165.461H253.072C243.059 165.461 234.943 173.464 234.943 183.337V575.518C234.943 585.391 243.059 593.394 253.072 593.394H417.821C427.833 593.394 435.95 585.391 435.95 575.518V183.337C435.95 173.464 427.833 165.461 417.821 165.461Z" fill="#F5F5F5"/>
<path d="M379.963 152H289.765C283.711 152 278.803 156.84 278.803 162.81V168.116C278.803 174.087 283.711 178.926 289.765 178.926H379.963C386.017 178.926 390.925 174.087 390.925 168.116V162.81C390.925 156.84 386.017 152 379.963 152Z" fill="white"/>
<path d="M287.226 585.665H383.667" stroke="#E2E2E2" stroke-width="6.79" stroke-linecap="round" stroke-linejoin="round"/>
<path d="M298.883 387.116C299.231 386.313 300.369 386.313 300.717 387.116L301.955 389.969C302.1 390.303 302.415 390.532 302.777 390.567L305.874 390.862C306.745 390.945 307.097 392.028 306.441 392.607L304.109 394.666C303.836 394.907 303.716 395.277 303.795 395.633L304.471 398.668C304.661 399.523 303.74 400.192 302.987 399.747L300.308 398.166C299.995 397.981 299.605 397.981 299.292 398.166L296.613 399.747C295.86 400.192 294.939 399.523 295.129 398.668L295.805 395.633C295.884 395.277 295.764 394.907 295.491 394.666L293.159 392.607C292.503 392.028 292.855 390.945 293.726 390.862L296.823 390.567C297.185 390.532 297.5 390.303 297.645 389.969L298.883 387.116Z" fill="#FEC703"/>
<path d="M316.483 387.116C316.831 386.313 317.969 386.313 318.318 387.116L319.555 389.969C319.7 390.303 320.015 390.532 320.378 390.567L323.474 390.862C324.345 390.945 324.697 392.028 324.041 392.607L321.709 394.666C321.436 394.907 321.316 395.277 321.395 395.633L322.071 398.668C322.262 399.523 321.34 400.192 320.587 399.747L317.908 398.166C317.595 397.981 317.205 397.981 316.892 398.166L314.213 399.747C313.46 400.192 312.539 399.523 312.729 398.668L313.405 395.633C313.484 395.277 313.364 394.907 313.091 394.666L310.759 392.607C310.103 392.028 310.455 390.945 311.326 390.862L314.423 390.567C314.785 390.532 315.1 390.303 315.245 389.969L316.483 387.116Z" fill="#FEC703"/>
<path d="M334.082 387.116C334.431 386.313 335.569 386.313 335.917 387.116L337.155 389.969C337.3 390.303 337.615 390.532 337.977 390.567L341.074 390.862C341.945 390.945 342.297 392.028 341.641 392.607L339.309 394.666C339.036 394.907 338.916 395.277 338.995 395.633L339.671 398.668C339.861 399.523 338.94 400.192 338.187 399.747L335.508 398.166C335.195 397.981 334.805 397.981 334.492 398.166L331.813 399.747C331.06 400.192 330.139 399.523 330.329 398.668L331.005 395.633C331.084 395.277 330.964 394.907 330.691 394.666L328.359 392.607C327.703 392.028 328.055 390.945 328.926 390.862L332.023 390.567C332.385 390.532 332.7 390.303 332.845 389.969L334.082 387.116Z" fill="#FEC703"/>
<path d="M351.683 387.116C352.031 386.313 353.169 386.313 353.518 387.116L354.755 389.969C354.9 390.303 355.215 390.532 355.577 390.567L358.674 390.862C359.545 390.945 359.897 392.028 359.241 392.607L356.909 394.666C356.636 394.907 356.516 395.277 356.595 395.633L357.271 398.668C357.461 399.523 356.54 400.192 355.787 399.747L353.108 398.166C352.795 397.981 352.405 397.981 352.092 398.166L349.413 399.747C348.66 400.192 347.739 399.523 347.929 398.668L348.605 395.633C348.684 395.277 348.564 394.907 348.291 394.666L345.959 392.607C345.303 392.028 345.655 390.945 346.526 390.862L349.623 390.567C349.985 390.532 350.3 390.303 350.445 389.969L351.683 387.116Z" fill="#FEC703"/>
<path d="M369.282 387.116C369.631 386.313 370.769 386.313 371.117 387.116L372.355 389.969C372.5 390.303 372.815 390.532 373.177 390.567L376.274 390.862C377.145 390.945 377.497 392.028 376.841 392.607L374.509 394.666C374.236 394.907 374.116 395.277 374.195 395.633L374.871 398.668C375.061 399.523 374.14 400.192 373.387 399.747L370.708 398.166C370.395 397.981 370.005 397.981 369.692 398.166L367.013 399.747C366.26 400.192 365.338 399.523 365.529 398.668L366.205 395.633C366.284 395.277 366.164 394.907 365.891 394.666L363.559 392.607C362.903 392.028 363.255 390.945 364.126 390.862L367.222 390.567C367.585 390.532 367.9 390.303 368.045 389.969L369.282 387.116Z" fill="#FEC703"/>
<text opacity="0.8" fill="#545871" xml:space="preserve" style="white-space: pre" font-family="Rubik" font-size="14" letter-spacing="0em"><tspan x="315" y="375.295">Indonesia</tspan></text>
<path d="M308.727 366H294.273C293.57 366 293 366.614 293 367.372V372H310V367.372C310 366.614 309.43 366 308.727 366Z" fill="#EA4753"/>
<path d="M293 375.857C293 376.488 293.57 377 294.273 377H308.727C309.43 377 310 376.488 310 375.857V372H293V375.857Z" fill="#F5F5F5"/>
<text fill="#545871" xml:space="preserve" style="white-space: pre" font-family="Rubik" font-size="18" letter-spacing="0em"><tspan x="273" y="351.665">Agency Dev</tspan></text>
<path d="M388.482 351.43C393.019 351.43 396.697 347.752 396.697 343.215C396.697 338.678 393.019 335 388.482 335C383.945 335 380.267 338.678 380.267 343.215C380.267 347.752 383.945 351.43 388.482 351.43Z" fill="#FFD15C"/>
<path d="M381.827 348.021L379 352.921L382.299 352.745L383.798 355.69L386.413 351.157C384.539 350.672 382.93 349.544 381.827 348.021Z" fill="#DB5F44"/>
<path d="M395.153 347.997C394.057 349.524 392.449 350.656 390.579 351.149L393.202 355.69L394.701 352.746L398 352.921L395.153 347.997Z" fill="#DB5F44"/>
<path d="M388.482 349.17C391.771 349.17 394.436 346.504 394.436 343.215C394.436 339.926 391.771 337.26 388.482 337.26C385.193 337.26 382.527 339.926 382.527 343.215C382.527 346.504 385.193 349.17 388.482 349.17Z" fill="#F8B64C"/>
<path d="M392.563 342.571C392.746 342.392 392.644 342.079 392.392 342.042L390.042 341.7C389.94 341.684 389.854 341.623 389.81 341.529L388.759 339.399C388.645 339.167 388.315 339.167 388.201 339.399L387.154 341.529C387.109 341.618 387.02 341.684 386.922 341.7L384.572 342.042C384.319 342.079 384.218 342.392 384.401 342.571L386.099 344.229C386.173 344.302 386.205 344.404 386.189 344.502L385.79 346.84C385.745 347.092 386.014 347.288 386.242 347.166L388.343 346.062C388.433 346.013 388.543 346.013 388.633 346.062L390.734 347.166C390.962 347.284 391.227 347.092 391.186 346.84L390.783 344.502C390.767 344.4 390.799 344.298 390.873 344.229L392.563 342.571Z" fill="white"/>
<circle cx="335" cy="287" r="36.0845" fill="#FEBD06"/>
<path fill-rule="evenodd" clip-rule="evenodd" d="M329.722 304.333C337.486 304.333 340.309 295.039 344.72 289.939C347.875 286.29 353.261 287.378 354.855 282.269C358.864 269.422 348.135 260.38 334.138 260.38C320.14 260.38 310.703 268.31 308.665 280.231C306.627 292.152 315.725 304.333 329.722 304.333Z" fill="#191847"/>
<path fill-rule="evenodd" clip-rule="evenodd" d="M323.76 321.329L330.744 296.479C327.773 292.87 325.794 288.49 326.137 283.601C327.157 269.064 347.392 272.262 351.328 279.599C355.265 286.936 354.797 305.546 349.71 306.857C347.847 307.338 344.05 306.297 340.036 304.071L343.921 321.951C341.041 322.691 338.022 323.085 334.911 323.085C331.019 323.085 327.272 322.469 323.76 321.329Z" fill="#F09B9B"/>
<path fill-rule="evenodd" clip-rule="evenodd" d="M326.814 270.624C314.326 282.851 326.861 295.847 330.296 295.847C330.517 294.083 331.194 292.366 332.185 290.733C331.658 290.052 331.346 289.204 331.346 288.285C331.346 286.034 333.219 284.21 335.528 284.21C336.25 284.21 336.929 284.388 337.521 284.701C342.527 280.431 348.806 277.455 351.924 276.87C357.346 275.852 339.301 258.397 326.814 270.624Z" fill="#191847"/>
<path d="M376.75 287C376.75 310.058 358.058 328.75 335 328.75C311.942 328.75 293.25 310.058 293.25 287C293.25 263.942 311.942 245.25 335 245.25C358.058 245.25 376.75 263.942 376.75 287Z" stroke="black" stroke-opacity="0.1" stroke-width="0.5"/>
<g filter="url(#filter1_d)">
<rect x="250" y="463" width="350" height="100" rx="25" fill="#FF6F42"/>
</g>
<text opacity="0.75" fill="white" xml:space="preserve" style="white-space: pre" font-family="Nunito" font-size="10" letter-spacing="0px"><tspan x="535" y="500.79">11:02 AM</tspan></text>
<text fill="white" xml:space="preserve" style="white-space: pre" font-family="Rubik" font-size="12" letter-spacing="0px"><tspan x="355" y="529.61">Thx for Amazing Project...</tspan></text>
<text fill="white" xml:space="preserve" style="white-space: pre" font-family="Rubik" font-size="16" font-weight="bold" letter-spacing="0px"><tspan x="355" y="506.98">John Smith</tspan></text>
<g opacity="0.1" filter="url(#filter2_f)">
<rect x="262" y="475" width="75" height="75" rx="20" fill="url(#paint1_linear)"/>
</g>
<rect x="262" y="475" width="75" height="75" rx="20" fill="white"/>
<path fill-rule="evenodd" clip-rule="evenodd" d="M310.575 499H289.125C286.847 499 285 500.847 285 503.125V516.325C285 518.603 286.847 520.45 289.125 520.45H291.6V526.189C291.6 526.203 291.617 526.21 291.627 526.201L298.2 520.45H310.575C312.853 520.45 314.7 518.603 314.7 516.325V503.125C314.7 500.847 312.853 499 310.575 499Z" stroke="#FF6F42" stroke-width="3" stroke-linecap="round"/>
<g opacity="0.05" filter="url(#filter3_f)">
<rect x="136" y="136" width="130" height="160" rx="25" fill="url(#paint2_linear)"/>
</g>
<g filter="url(#filter4_d)">
<rect x="136" y="136" width="130" height="160" rx="25" fill="#0FCBDA"/>
</g>
<path fill-rule="evenodd" clip-rule="evenodd" d="M201 225C217.569 225 231 211.569 231 195C231 178.431 217.569 165 201 165C184.431 165 171 178.431 171 195C171 211.569 184.431 225 201 225Z" fill="#F2F6FF"/>
<path fill-rule="evenodd" clip-rule="evenodd" d="M196.719 187.152H206.281C207.161 187.152 207.875 187.875 207.875 188.766V202.398L202.362 198.808H202.362C201.837 198.467 201.163 198.467 200.638 198.808L195.125 202.398V188.766C195.125 187.875 195.839 187.152 196.719 187.152ZM193 188.766C193 186.686 194.665 185 196.719 185H206.281C208.335 185 210 186.686 210 188.766V203.383C210 204.66 208.605 205.432 207.544 204.741L207.544 204.741L207.545 204.741L208.406 203.383L208.694 202.931L207.875 202.398V203.383C207.875 202.958 208.34 202.701 208.694 202.931L208.406 203.383L207.544 204.741L201.5 200.806L201.787 200.619C201.613 200.732 201.389 200.733 201.215 200.62L201.5 200.806L195.456 204.741C194.395 205.432 193 204.66 193 203.383V188.766ZM195.125 202.398L194.306 202.931C194.66 202.701 195.125 202.958 195.125 203.383V202.398Z" fill="#0FCBDA"/>
<text fill="white" xml:space="preserve" style="white-space: pre" font-family="Rubik" font-size="16" letter-spacing="0px"><tspan x="166.156" y="256.48">Bookmark</tspan></text>
<defs>
<filter id="filter0_b" x="97" y="156" width="476" height="476" filterUnits="userSpaceOnUse" color-interpolation-filters="sRGB">
<feFlood flood-opacity="0" result="BackgroundImageFix"/>
<feGaussianBlur in="BackgroundImage" stdDeviation="10"/>
<feComposite in2="SourceAlpha" operator="in" result="effect1_backgroundBlur"/>
<feBlend mode="normal" in="SourceGraphic" in2="effect1_backgroundBlur" result="shape"/>
</filter>
<filter id="filter1_d" x="230" y="451" width="390" height="140" filterUnits="userSpaceOnUse" color-interpolation-filters="sRGB">
<feFlood flood-opacity="0" result="BackgroundImageFix"/>
<feColorMatrix in="SourceAlpha" type="matrix" values="0 0 0 0 0 0 0 0 0 0 0 0 0 0 0 0 0 0 127 0" result="hardAlpha"/>
<feOffset dy="8"/>
<feGaussianBlur stdDeviation="10"/>
<feColorMatrix type="matrix" values="0 0 0 0 0 0 0 0 0 0.227451 0 0 0 0 0.321569 0 0 0 0.1 0"/>
<feBlend mode="normal" in2="BackgroundImageFix" result="effect1_dropShadow"/>
<feBlend mode="normal" in="SourceGraphic" in2="effect1_dropShadow" result="shape"/>
</filter>
<filter id="filter2_f" x="126.086" y="339.086" width="346.828" height="346.828" filterUnits="userSpaceOnUse" color-interpolation-filters="sRGB">
<feFlood flood-opacity="0" result="BackgroundImageFix"/>
<feBlend mode="normal" in="SourceGraphic" in2="BackgroundImageFix" result="shape"/>
<feGaussianBlur stdDeviation="67.957" result="effect1_foregroundBlur"/>
</filter>
<filter id="filter3_f" x="0.085907" y="0.085907" width="401.828" height="431.828" filterUnits="userSpaceOnUse" color-interpolation-filters="sRGB">
<feFlood flood-opacity="0" result="BackgroundImageFix"/>
<feBlend mode="normal" in="SourceGraphic" in2="BackgroundImageFix" result="shape"/>
<feGaussianBlur stdDeviation="67.957" result="effect1_foregroundBlur"/>
</filter>
<filter id="filter4_d" x="116" y="124" width="170" height="200" filterUnits="userSpaceOnUse" color-interpolation-filters="sRGB">
<feFlood flood-opacity="0" result="BackgroundImageFix"/>
<feColorMatrix in="SourceAlpha" type="matrix" values="0 0 0 0 0 0 0 0 0 0 0 0 0 0 0 0 0 0 127 0" result="hardAlpha"/>
<feOffset dy="8"/>
<feGaussianBlur stdDeviation="10"/>
<feColorMatrix type="matrix" values="0 0 0 0 0 0 0 0 0 0.227451 0 0 0 0 0.321569 0 0 0 0.1 0"/>
<feBlend mode="normal" in2="BackgroundImageFix" result="effect1_dropShadow"/>
<feBlend mode="normal" in="SourceGraphic" in2="effect1_dropShadow" result="shape"/>
</filter>
<linearGradient id="paint0_linear" x1="335" y1="291.5" x2="335" y2="526.5" gradientUnits="userSpaceOnUse">
<stop stop-color="white"/>
<stop offset="1" stop-color="white" stop-opacity="0"/>
</linearGradient>
<linearGradient id="paint1_linear" x1="318.796" y1="577.448" x2="378.61" y2="490.591" gradientUnits="userSpaceOnUse">
<stop stop-color="#234CAD"/>
<stop offset="1" stop-color="#234CAD" stop-opacity="0.5"/>
</linearGradient>
<linearGradient id="paint2_linear" x1="234.447" y1="354.556" x2="369.184" y2="195.587" gradientUnits="userSpaceOnUse">
<stop stop-color="#234CAD"/>
<stop offset="1" stop-color="#234CAD" stop-opacity="0.5"/>
</linearGradient>
</defs>
</svg>
