<svg width="402" height="432" viewBox="0 0 402 432" fill="none" xmlns="http://www.w3.org/2000/svg">
<g opacity="0.05" filter="url(#filter0_f)">
<rect x="136" y="136" width="130" height="160" rx="25" fill="url(#paint0_linear)"/>
</g>
<g filter="url(#filter1_d)">
<rect x="136" y="136" width="130" height="160" rx="25" fill="#0FCBDA"/>
</g>
<path fill-rule="evenodd" clip-rule="evenodd" d="M201 225C217.569 225 231 211.569 231 195C231 178.431 217.569 165 201 165C184.431 165 171 178.431 171 195C171 211.569 184.431 225 201 225Z" fill="#F2F6FF"/>
<path fill-rule="evenodd" clip-rule="evenodd" d="M196.719 187.152H206.281C207.161 187.152 207.875 187.875 207.875 188.766V202.398L202.362 198.808H202.362C201.837 198.467 201.163 198.467 200.638 198.808L195.125 202.398V188.766C195.125 187.875 195.839 187.152 196.719 187.152ZM193 188.766C193 186.686 194.665 185 196.719 185H206.281C208.335 185 210 186.686 210 188.766V203.383C210 204.66 208.605 205.432 207.544 204.741L207.544 204.741L207.545 204.741L208.406 203.383L208.694 202.931L207.875 202.398V203.383C207.875 202.958 208.34 202.701 208.694 202.931L208.406 203.383L207.544 204.741L201.5 200.806L201.787 200.619C201.613 200.732 201.389 200.733 201.215 200.62L201.5 200.806L195.456 204.741C194.395 205.432 193 204.66 193 203.383V188.766ZM195.125 202.398L194.306 202.931C194.66 202.701 195.125 202.958 195.125 203.383V202.398Z" fill="#0FCBDA"/>
<path d="M167.916 256C167.81 256 167.719 255.968 167.644 255.904C167.58 255.829 167.548 255.739 167.548 255.632V245.184C167.548 245.067 167.58 244.976 167.644 244.912C167.719 244.837 167.81 244.8 167.916 244.8H172.3C173.442 244.8 174.3 245.072 174.876 245.616C175.452 246.16 175.74 246.875 175.74 247.76C175.74 248.357 175.602 248.853 175.324 249.248C175.058 249.643 174.738 249.931 174.364 250.112C174.812 250.336 175.191 250.683 175.5 251.152C175.81 251.621 175.964 252.16 175.964 252.768C175.964 253.365 175.826 253.909 175.548 254.4C175.282 254.891 174.882 255.28 174.348 255.568C173.815 255.856 173.175 256 172.428 256H167.916ZM172.06 249.536C172.732 249.536 173.244 249.381 173.596 249.072C173.959 248.763 174.14 248.331 174.14 247.776C174.14 247.232 173.964 246.816 173.612 246.528C173.26 246.24 172.743 246.096 172.06 246.096H169.116V249.536H172.06ZM172.22 254.704C172.892 254.704 173.415 254.523 173.788 254.16C174.172 253.797 174.364 253.333 174.364 252.768C174.364 252.181 174.172 251.712 173.788 251.36C173.415 250.997 172.892 250.816 172.22 250.816H169.116V254.704H172.22ZM181.436 256.16C180.262 256.16 179.35 255.829 178.7 255.168C178.06 254.507 177.718 253.627 177.676 252.528L177.66 251.84L177.676 251.152C177.718 250.064 178.065 249.189 178.716 248.528C179.366 247.856 180.273 247.52 181.436 247.52C182.598 247.52 183.505 247.856 184.156 248.528C184.806 249.189 185.153 250.064 185.196 251.152C185.206 251.269 185.212 251.499 185.212 251.84C185.212 252.181 185.206 252.411 185.196 252.528C185.153 253.627 184.806 254.507 184.156 255.168C183.516 255.829 182.609 256.16 181.436 256.16ZM181.436 254.928C182.108 254.928 182.636 254.715 183.02 254.288C183.414 253.861 183.628 253.248 183.66 252.448C183.67 252.341 183.676 252.139 183.676 251.84C183.676 251.541 183.67 251.339 183.66 251.232C183.628 250.432 183.414 249.819 183.02 249.392C182.636 248.965 182.108 248.752 181.436 248.752C180.764 248.752 180.23 248.965 179.836 249.392C179.441 249.819 179.233 250.432 179.212 251.232L179.196 251.84L179.212 252.448C179.233 253.248 179.441 253.861 179.836 254.288C180.23 254.715 180.764 254.928 181.436 254.928ZM190.623 256.16C189.45 256.16 188.538 255.829 187.887 255.168C187.247 254.507 186.906 253.627 186.863 252.528L186.847 251.84L186.863 251.152C186.906 250.064 187.253 249.189 187.903 248.528C188.554 247.856 189.461 247.52 190.623 247.52C191.786 247.52 192.693 247.856 193.343 248.528C193.994 249.189 194.341 250.064 194.383 251.152C194.394 251.269 194.399 251.499 194.399 251.84C194.399 252.181 194.394 252.411 194.383 252.528C194.341 253.627 193.994 254.507 193.343 255.168C192.703 255.829 191.797 256.16 190.623 256.16ZM190.623 254.928C191.295 254.928 191.823 254.715 192.207 254.288C192.602 253.861 192.815 253.248 192.847 252.448C192.858 252.341 192.863 252.139 192.863 251.84C192.863 251.541 192.858 251.339 192.847 251.232C192.815 250.432 192.602 249.819 192.207 249.392C191.823 248.965 191.295 248.752 190.623 248.752C189.951 248.752 189.418 248.965 189.023 249.392C188.629 249.819 188.421 250.432 188.399 251.232L188.383 251.84L188.399 252.448C188.421 253.248 188.629 253.861 189.023 254.288C189.418 254.715 189.951 254.928 190.623 254.928ZM196.787 256C196.68 256 196.589 255.968 196.515 255.904C196.451 255.829 196.419 255.739 196.419 255.632V245.008C196.419 244.901 196.451 244.816 196.515 244.752C196.589 244.677 196.68 244.64 196.787 244.64H197.539C197.645 244.64 197.731 244.677 197.795 244.752C197.869 244.816 197.907 244.901 197.907 245.008V250.576L201.059 247.952C201.091 247.931 201.144 247.888 201.219 247.824C201.293 247.771 201.363 247.733 201.427 247.712C201.501 247.691 201.592 247.68 201.699 247.68H202.547C202.643 247.68 202.723 247.712 202.787 247.776C202.851 247.84 202.883 247.92 202.883 248.016C202.883 248.133 202.819 248.235 202.691 248.32L198.995 251.392L203.091 255.376C203.219 255.483 203.283 255.579 203.283 255.664C203.283 255.76 203.251 255.84 203.187 255.904C203.123 255.968 203.043 256 202.947 256H202.115C201.955 256 201.837 255.984 201.763 255.952C201.699 255.92 201.603 255.845 201.475 255.728L197.907 252.32V255.632C197.907 255.739 197.869 255.829 197.795 255.904C197.731 255.968 197.645 256 197.539 256H196.787ZM205.021 256C204.914 256 204.823 255.968 204.749 255.904C204.685 255.829 204.653 255.739 204.653 255.632V248.048C204.653 247.941 204.685 247.856 204.749 247.792C204.823 247.717 204.914 247.68 205.021 247.68H205.741C205.847 247.68 205.933 247.717 205.997 247.792C206.071 247.856 206.109 247.941 206.109 248.048V248.608C206.663 247.883 207.437 247.52 208.429 247.52C209.613 247.52 210.45 248.011 210.941 248.992C211.197 248.544 211.559 248.187 212.029 247.92C212.498 247.653 213.026 247.52 213.613 247.52C214.487 247.52 215.202 247.819 215.757 248.416C216.311 249.013 216.589 249.877 216.589 251.008V255.632C216.589 255.739 216.551 255.829 216.477 255.904C216.413 255.968 216.327 256 216.221 256H215.469C215.362 256 215.271 255.968 215.197 255.904C215.133 255.829 215.101 255.739 215.101 255.632V251.152C215.101 250.32 214.925 249.723 214.573 249.36C214.231 248.997 213.778 248.816 213.213 248.816C212.711 248.816 212.279 249.003 211.917 249.376C211.554 249.739 211.373 250.331 211.373 251.152V255.632C211.373 255.739 211.335 255.829 211.261 255.904C211.197 255.968 211.111 256 211.005 256H210.253C210.146 256 210.055 255.968 209.981 255.904C209.917 255.829 209.885 255.739 209.885 255.632V251.152C209.885 250.32 209.703 249.723 209.341 249.36C208.989 248.997 208.541 248.816 207.997 248.816C207.495 248.816 207.063 249.003 206.701 249.376C206.338 249.739 206.157 250.325 206.157 251.136V255.632C206.157 255.739 206.119 255.829 206.045 255.904C205.981 255.968 205.895 256 205.789 256H205.021ZM221.192 256.16C220.669 256.16 220.184 256.053 219.736 255.84C219.288 255.627 218.93 255.339 218.664 254.976C218.408 254.603 218.28 254.192 218.28 253.744C218.28 253.04 218.568 252.464 219.144 252.016C219.73 251.557 220.52 251.259 221.512 251.12L223.896 250.784V250.32C223.896 249.232 223.272 248.688 222.024 248.688C221.554 248.688 221.17 248.789 220.872 248.992C220.573 249.184 220.349 249.413 220.2 249.68C220.168 249.776 220.125 249.845 220.072 249.888C220.029 249.931 219.965 249.952 219.88 249.952H219.192C219.096 249.952 219.01 249.92 218.936 249.856C218.872 249.781 218.84 249.696 218.84 249.6C218.85 249.344 218.968 249.056 219.192 248.736C219.426 248.405 219.784 248.123 220.264 247.888C220.744 247.643 221.336 247.52 222.04 247.52C223.234 247.52 224.093 247.803 224.616 248.368C225.138 248.923 225.4 249.616 225.4 250.448V255.632C225.4 255.739 225.362 255.829 225.288 255.904C225.224 255.968 225.138 256 225.032 256H224.296C224.189 256 224.098 255.968 224.024 255.904C223.96 255.829 223.928 255.739 223.928 255.632V254.944C223.693 255.285 223.352 255.573 222.904 255.808C222.456 256.043 221.885 256.16 221.192 256.16ZM221.528 254.96C222.221 254.96 222.786 254.736 223.224 254.288C223.672 253.829 223.896 253.173 223.896 252.32V251.872L222.04 252.144C221.282 252.251 220.712 252.432 220.328 252.688C219.944 252.933 219.752 253.248 219.752 253.632C219.752 254.059 219.928 254.389 220.28 254.624C220.632 254.848 221.048 254.96 221.528 254.96ZM228.068 256C227.961 256 227.87 255.968 227.796 255.904C227.732 255.829 227.7 255.739 227.7 255.632V248.064C227.7 247.957 227.732 247.867 227.796 247.792C227.87 247.717 227.961 247.68 228.068 247.68H228.804C228.91 247.68 229.001 247.717 229.076 247.792C229.15 247.867 229.188 247.957 229.188 248.064V248.768C229.625 248.043 230.372 247.68 231.428 247.68H232.052C232.158 247.68 232.244 247.717 232.308 247.792C232.382 247.856 232.42 247.941 232.42 248.048V248.704C232.42 248.811 232.382 248.896 232.308 248.96C232.244 249.024 232.158 249.056 232.052 249.056H231.092C230.516 249.056 230.062 249.227 229.732 249.568C229.401 249.899 229.236 250.352 229.236 250.928V255.632C229.236 255.739 229.198 255.829 229.124 255.904C229.049 255.968 228.958 256 228.852 256H228.068ZM234.162 256C234.055 256 233.964 255.968 233.89 255.904C233.826 255.829 233.794 255.739 233.794 255.632V245.008C233.794 244.901 233.826 244.816 233.89 244.752C233.964 244.677 234.055 244.64 234.162 244.64H234.914C235.02 244.64 235.106 244.677 235.17 244.752C235.244 244.816 235.282 244.901 235.282 245.008V250.576L238.434 247.952C238.466 247.931 238.519 247.888 238.594 247.824C238.668 247.771 238.738 247.733 238.802 247.712C238.876 247.691 238.967 247.68 239.074 247.68H239.922C240.018 247.68 240.098 247.712 240.162 247.776C240.226 247.84 240.258 247.92 240.258 248.016C240.258 248.133 240.194 248.235 240.066 248.32L236.37 251.392L240.466 255.376C240.594 255.483 240.658 255.579 240.658 255.664C240.658 255.76 240.626 255.84 240.562 255.904C240.498 255.968 240.418 256 240.322 256H239.49C239.33 256 239.212 255.984 239.138 255.952C239.074 255.92 238.978 255.845 238.85 255.728L235.282 252.32V255.632C235.282 255.739 235.244 255.829 235.17 255.904C235.106 255.968 235.02 256 234.914 256H234.162Z" fill="white"/>
<defs>
<filter id="filter0_f" x="0.085907" y="0.085907" width="401.828" height="431.828" filterUnits="userSpaceOnUse" color-interpolation-filters="sRGB">
<feFlood flood-opacity="0" result="BackgroundImageFix"/>
<feBlend mode="normal" in="SourceGraphic" in2="BackgroundImageFix" result="shape"/>
<feGaussianBlur stdDeviation="67.957" result="effect1_foregroundBlur"/>
</filter>
<filter id="filter1_d" x="116" y="124" width="170" height="200" filterUnits="userSpaceOnUse" color-interpolation-filters="sRGB">
<feFlood flood-opacity="0" result="BackgroundImageFix"/>
<feColorMatrix in="SourceAlpha" type="matrix" values="0 0 0 0 0 0 0 0 0 0 0 0 0 0 0 0 0 0 127 0" result="hardAlpha"/>
<feOffset dy="8"/>
<feGaussianBlur stdDeviation="10"/>
<feColorMatrix type="matrix" values="0 0 0 0 0 0 0 0 0 0.227451 0 0 0 0 0.321569 0 0 0 0.1 0"/>
<feBlend mode="normal" in2="BackgroundImageFix" result="effect1_dropShadow"/>
<feBlend mode="normal" in="SourceGraphic" in2="effect1_dropShadow" result="shape"/>
</filter>
<linearGradient id="paint0_linear" x1="234.447" y1="354.556" x2="369.184" y2="195.587" gradientUnits="userSpaceOnUse">
<stop stop-color="#234CAD"/>
<stop offset="1" stop-color="#234CAD" stop-opacity="0.5"/>
</linearGradient>
</defs>
</svg>
