<svg width="125" height="158" viewBox="0 0 125 158" fill="none" xmlns="http://www.w3.org/2000/svg">
<path d="M25.8825 142.116C26.2307 141.313 27.3693 141.313 27.7175 142.116L28.9548 144.969C29.0997 145.303 29.4148 145.532 29.7774 145.567L32.8736 145.862C33.7448 145.945 34.0966 147.028 33.4406 147.607L31.1092 149.666C30.8361 149.907 30.7158 150.277 30.795 150.633L31.4712 153.668C31.6614 154.523 30.7403 155.192 29.9867 154.747L27.3084 153.166C26.9948 152.981 26.6052 152.981 26.2916 153.166L23.6133 154.747C22.8597 155.192 21.9386 154.523 22.1288 153.668L22.805 150.633C22.8842 150.277 22.7639 149.907 22.4908 149.666L20.1594 147.607C19.5034 147.028 19.8552 145.945 20.7264 145.862L23.8226 145.567C24.1852 145.532 24.5003 145.303 24.6452 144.969L25.8825 142.116Z" fill="#FEC703"/>
<path d="M43.4826 142.116C43.8308 141.313 44.9694 141.313 45.3176 142.116L46.5549 144.969C46.6998 145.303 47.0149 145.532 47.3775 145.567L50.4737 145.862C51.3449 145.945 51.6967 147.028 51.0407 147.607L48.7093 149.666C48.4362 149.907 48.3159 150.277 48.3951 150.633L49.0712 153.668C49.2615 154.523 48.3404 155.192 47.5868 154.747L44.9085 153.166C44.5949 152.981 44.2053 152.981 43.8917 153.166L41.2134 154.747C40.4598 155.192 39.5387 154.523 39.7289 153.668L40.4051 150.633C40.4843 150.277 40.3639 149.907 40.0909 149.666L37.7595 147.607C37.1035 147.028 37.4553 145.945 38.3265 145.862L41.4227 145.567C41.7853 145.532 42.1004 145.303 42.2453 144.969L43.4826 142.116Z" fill="#FEC703"/>
<path d="M61.0825 142.116C61.4307 141.313 62.5692 141.313 62.9174 142.116L64.1548 144.969C64.2997 145.303 64.6148 145.532 64.9774 145.567L68.0736 145.862C68.9447 145.945 69.2966 147.028 68.6406 147.607L66.3091 149.666C66.0361 149.907 65.9157 150.277 65.9949 150.633L66.6711 153.668C66.8614 154.523 65.9402 155.192 65.1866 154.747L62.5083 153.166C62.1947 152.981 61.8052 152.981 61.4916 153.166L58.8133 154.747C58.0597 155.192 57.1385 154.523 57.3288 153.668L58.005 150.633C58.0842 150.277 57.9638 149.907 57.6908 149.666L55.3593 147.607C54.7033 147.028 55.0552 145.945 55.9263 145.862L59.0225 145.567C59.3851 145.532 59.7002 145.303 59.8451 144.969L61.0825 142.116Z" fill="#FEC703"/>
<path d="M78.6826 142.116C79.0308 141.313 80.1693 141.313 80.5175 142.116L81.7549 144.969C81.8998 145.303 82.2149 145.532 82.5775 145.567L85.6737 145.862C86.5448 145.945 86.8967 147.028 86.2407 147.607L83.9092 149.666C83.6362 149.907 83.5158 150.277 83.595 150.633L84.2712 153.668C84.4615 154.523 83.5403 155.192 82.7867 154.747L80.1084 153.166C79.7948 152.981 79.4053 152.981 79.0917 153.166L76.4134 154.747C75.6598 155.192 74.7386 154.523 74.9289 153.668L75.6051 150.633C75.6843 150.277 75.5639 149.907 75.2909 149.666L72.9594 147.607C72.3034 147.028 72.6553 145.945 73.5264 145.862L76.6226 145.567C76.9852 145.532 77.3003 145.303 77.4452 144.969L78.6826 142.116Z" fill="#FEC703"/>
<path d="M96.2824 142.116C96.6306 141.313 97.7692 141.313 98.1174 142.116L99.3547 144.969C99.4996 145.303 99.8147 145.532 100.177 145.567L103.274 145.862C104.145 145.945 104.497 147.028 103.841 147.607L101.509 149.666C101.236 149.907 101.116 150.277 101.195 150.633L101.871 153.668C102.061 154.523 101.14 155.192 100.387 154.747L97.7083 153.166C97.3947 152.981 97.0051 152.981 96.6915 153.166L94.0132 154.747C93.2596 155.192 92.3385 154.523 92.5288 153.668L93.2049 150.633C93.2841 150.277 93.1638 149.907 92.8907 149.666L90.5593 147.607C89.9033 147.028 90.2551 145.945 91.1263 145.862L94.2225 145.567C94.5851 145.532 94.9002 145.303 95.0451 144.969L96.2824 142.116Z" fill="#FEC703"/>
<path opacity="0.8" d="M43.54 130C43.4467 130 43.3673 129.972 43.302 129.916C43.246 129.851 43.218 129.771 43.218 129.678V120.522C43.218 120.429 43.246 120.354 43.302 120.298C43.3673 120.233 43.4467 120.2 43.54 120.2H44.282C44.3753 120.2 44.45 120.233 44.506 120.298C44.5713 120.354 44.604 120.429 44.604 120.522V129.678C44.604 129.771 44.5713 129.851 44.506 129.916C44.45 129.972 44.3753 130 44.282 130H43.54ZM47.1861 130C47.0928 130 47.0135 129.972 46.9481 129.916C46.8921 129.851 46.8641 129.771 46.8641 129.678V123.042C46.8641 122.949 46.8921 122.874 46.9481 122.818C47.0135 122.753 47.0928 122.72 47.1861 122.72H47.8441C47.9375 122.72 48.0121 122.753 48.0681 122.818C48.1335 122.874 48.1661 122.949 48.1661 123.042V123.658C48.4368 123.313 48.7541 123.047 49.1181 122.86C49.4915 122.673 49.9535 122.58 50.5041 122.58C51.4001 122.58 52.0955 122.869 52.5901 123.448C53.0941 124.017 53.3461 124.778 53.3461 125.73V129.678C53.3461 129.771 53.3135 129.851 53.2481 129.916C53.1921 129.972 53.1175 130 53.0241 130H52.3241C52.2308 130 52.1515 129.972 52.0861 129.916C52.0301 129.851 52.0021 129.771 52.0021 129.678V125.8C52.0021 125.137 51.8388 124.624 51.5121 124.26C51.1948 123.896 50.7328 123.714 50.1261 123.714C49.5381 123.714 49.0715 123.901 48.7261 124.274C48.3808 124.638 48.2081 125.147 48.2081 125.8V129.678C48.2081 129.771 48.1755 129.851 48.1101 129.916C48.0541 129.972 47.9795 130 47.8861 130H47.1861ZM58.0144 130.14C57.0437 130.14 56.311 129.823 55.8164 129.188C55.3217 128.553 55.0604 127.751 55.0324 126.78L55.0184 126.36L55.0324 125.94C55.0604 124.979 55.3217 124.181 55.8164 123.546C56.311 122.902 57.0437 122.58 58.0144 122.58C58.9757 122.58 59.7317 122.921 60.2824 123.602V120.382C60.2824 120.289 60.3104 120.214 60.3664 120.158C60.4317 120.093 60.511 120.06 60.6044 120.06H61.2764C61.3697 120.06 61.4444 120.093 61.5004 120.158C61.5657 120.214 61.5984 120.289 61.5984 120.382V129.678C61.5984 129.771 61.5657 129.851 61.5004 129.916C61.4444 129.972 61.3697 130 61.2764 130H60.6464C60.553 130 60.4737 129.972 60.4084 129.916C60.3524 129.851 60.3244 129.771 60.3244 129.678V129.09C59.783 129.79 59.013 130.14 58.0144 130.14ZM58.3084 129.006C58.9524 129.006 59.433 128.796 59.7504 128.376C60.077 127.947 60.2544 127.438 60.2824 126.85C60.2917 126.747 60.2964 126.57 60.2964 126.318C60.2964 126.057 60.2917 125.875 60.2824 125.772C60.2637 125.221 60.0864 124.741 59.7504 124.33C59.4144 123.919 58.9337 123.714 58.3084 123.714C57.6457 123.714 57.1604 123.919 56.8524 124.33C56.5537 124.741 56.3904 125.282 56.3624 125.954L56.3484 126.36C56.3484 128.124 57.0017 129.006 58.3084 129.006ZM66.6625 130.14C65.6359 130.14 64.8379 129.851 64.2685 129.272C63.7085 128.693 63.4099 127.923 63.3725 126.962L63.3585 126.36L63.3725 125.758C63.4099 124.806 63.7132 124.041 64.2825 123.462C64.8519 122.874 65.6452 122.58 66.6625 122.58C67.6799 122.58 68.4732 122.874 69.0425 123.462C69.6119 124.041 69.9152 124.806 69.9525 125.758C69.9619 125.861 69.9665 126.061 69.9665 126.36C69.9665 126.659 69.9619 126.859 69.9525 126.962C69.9152 127.923 69.6119 128.693 69.0425 129.272C68.4825 129.851 67.6892 130.14 66.6625 130.14ZM66.6625 129.062C67.2505 129.062 67.7125 128.875 68.0485 128.502C68.3939 128.129 68.5805 127.592 68.6085 126.892C68.6179 126.799 68.6225 126.621 68.6225 126.36C68.6225 126.099 68.6179 125.921 68.6085 125.828C68.5805 125.128 68.3939 124.591 68.0485 124.218C67.7125 123.845 67.2505 123.658 66.6625 123.658C66.0745 123.658 65.6079 123.845 65.2625 124.218C64.9172 124.591 64.7352 125.128 64.7165 125.828L64.7025 126.36L64.7165 126.892C64.7352 127.592 64.9172 128.129 65.2625 128.502C65.6079 128.875 66.0745 129.062 66.6625 129.062ZM72.0416 130C71.9483 130 71.8689 129.972 71.8036 129.916C71.7476 129.851 71.7196 129.771 71.7196 129.678V123.042C71.7196 122.949 71.7476 122.874 71.8036 122.818C71.8689 122.753 71.9483 122.72 72.0416 122.72H72.6996C72.7929 122.72 72.8676 122.753 72.9236 122.818C72.9889 122.874 73.0216 122.949 73.0216 123.042V123.658C73.2923 123.313 73.6096 123.047 73.9736 122.86C74.3469 122.673 74.8089 122.58 75.3596 122.58C76.2556 122.58 76.9509 122.869 77.4456 123.448C77.9496 124.017 78.2016 124.778 78.2016 125.73V129.678C78.2016 129.771 78.1689 129.851 78.1036 129.916C78.0476 129.972 77.9729 130 77.8796 130H77.1796C77.0863 130 77.0069 129.972 76.9416 129.916C76.8856 129.851 76.8576 129.771 76.8576 129.678V125.8C76.8576 125.137 76.6943 124.624 76.3676 124.26C76.0503 123.896 75.5883 123.714 74.9816 123.714C74.3936 123.714 73.9269 123.901 73.5816 124.274C73.2363 124.638 73.0636 125.147 73.0636 125.8V129.678C73.0636 129.771 73.0309 129.851 72.9656 129.916C72.9096 129.972 72.8349 130 72.7416 130H72.0416ZM83.1218 130.14C82.1605 130.14 81.3905 129.846 80.8118 129.258C80.2425 128.661 79.9298 127.849 79.8738 126.822L79.8598 126.346L79.8738 125.884C79.9392 124.876 80.2565 124.073 80.8258 123.476C81.4045 122.879 82.1652 122.58 83.1078 122.58C84.1438 122.58 84.9465 122.911 85.5158 123.574C86.0852 124.227 86.3698 125.114 86.3698 126.234V126.472C86.3698 126.565 86.3372 126.645 86.2718 126.71C86.2158 126.766 86.1412 126.794 86.0478 126.794H81.2038V126.92C81.2318 127.527 81.4138 128.045 81.7498 128.474C82.0952 128.894 82.5478 129.104 83.1078 129.104C83.5372 129.104 83.8872 129.02 84.1578 128.852C84.4378 128.675 84.6432 128.493 84.7738 128.306C84.8578 128.194 84.9185 128.129 84.9558 128.11C85.0025 128.082 85.0818 128.068 85.1938 128.068H85.8798C85.9638 128.068 86.0338 128.091 86.0898 128.138C86.1458 128.185 86.1738 128.25 86.1738 128.334C86.1738 128.539 86.0432 128.787 85.7818 129.076C85.5298 129.365 85.1705 129.617 84.7038 129.832C84.2465 130.037 83.7192 130.14 83.1218 130.14ZM85.0398 125.828V125.786C85.0398 125.142 84.8625 124.619 84.5078 124.218C84.1625 123.807 83.6958 123.602 83.1078 123.602C82.5198 123.602 82.0532 123.807 81.7078 124.218C81.3718 124.619 81.2038 125.142 81.2038 125.786V125.828H85.0398ZM90.5638 130.14C89.9105 130.14 89.3598 130.037 88.9118 129.832C88.4731 129.617 88.1418 129.375 87.9178 129.104C87.7031 128.833 87.5958 128.609 87.5958 128.432C87.5958 128.339 87.6285 128.269 87.6938 128.222C87.7685 128.166 87.8431 128.138 87.9178 128.138H88.5478C88.6411 128.138 88.7251 128.185 88.7998 128.278C89.0238 128.539 89.2665 128.745 89.5278 128.894C89.7891 129.043 90.1391 129.118 90.5778 129.118C91.0631 129.118 91.4551 129.025 91.7538 128.838C92.0618 128.642 92.2158 128.376 92.2158 128.04C92.2158 127.816 92.1505 127.634 92.0198 127.494C91.8985 127.345 91.6838 127.219 91.3758 127.116C91.0771 127.004 90.6291 126.883 90.0318 126.752C89.2198 126.575 88.6411 126.318 88.2958 125.982C87.9598 125.646 87.7918 125.212 87.7918 124.68C87.7918 124.325 87.8945 123.989 88.0998 123.672C88.3145 123.345 88.6225 123.084 89.0238 122.888C89.4345 122.683 89.9245 122.58 90.4938 122.58C91.0911 122.58 91.5998 122.678 92.0198 122.874C92.4398 123.07 92.7525 123.303 92.9578 123.574C93.1725 123.835 93.2798 124.055 93.2798 124.232C93.2798 124.316 93.2471 124.386 93.1818 124.442C93.1258 124.498 93.0558 124.526 92.9718 124.526H92.3838C92.2718 124.526 92.1785 124.479 92.1038 124.386C91.9545 124.209 91.8238 124.073 91.7118 123.98C91.6091 123.877 91.4551 123.789 91.2498 123.714C91.0538 123.639 90.8018 123.602 90.4938 123.602C90.0458 123.602 89.7005 123.7 89.4578 123.896C89.2151 124.083 89.0938 124.33 89.0938 124.638C89.0938 124.834 89.1451 125.002 89.2478 125.142C89.3505 125.273 89.5465 125.394 89.8358 125.506C90.1345 125.618 90.5638 125.735 91.1238 125.856C92.0105 126.043 92.6358 126.313 92.9998 126.668C93.3731 127.013 93.5598 127.457 93.5598 127.998C93.5598 128.399 93.4431 128.763 93.2098 129.09C92.9765 129.417 92.6311 129.673 92.1738 129.86C91.7258 130.047 91.1891 130.14 90.5638 130.14ZM95.3905 121.362C95.2972 121.362 95.2179 121.334 95.1525 121.278C95.0965 121.213 95.0685 121.133 95.0685 121.04V120.284C95.0685 120.191 95.0965 120.111 95.1525 120.046C95.2179 119.981 95.2972 119.948 95.3905 119.948H96.2725C96.3659 119.948 96.4452 119.981 96.5105 120.046C96.5759 120.111 96.6085 120.191 96.6085 120.284V121.04C96.6085 121.133 96.5759 121.213 96.5105 121.278C96.4452 121.334 96.3659 121.362 96.2725 121.362H95.3905ZM95.5025 130C95.4092 130 95.3299 129.972 95.2645 129.916C95.2085 129.851 95.1805 129.771 95.1805 129.678V123.042C95.1805 122.949 95.2085 122.874 95.2645 122.818C95.3299 122.753 95.4092 122.72 95.5025 122.72H96.1745C96.2679 122.72 96.3425 122.753 96.3985 122.818C96.4639 122.874 96.4965 122.949 96.4965 123.042V129.678C96.4965 129.771 96.4639 129.851 96.3985 129.916C96.3425 129.972 96.2679 130 96.1745 130H95.5025ZM100.601 130.14C100.144 130.14 99.7192 130.047 99.3272 129.86C98.9352 129.673 98.6225 129.421 98.3892 129.104C98.1652 128.777 98.0532 128.418 98.0532 128.026C98.0532 127.41 98.3052 126.906 98.8092 126.514C99.3225 126.113 100.013 125.851 100.881 125.73L102.967 125.436V125.03C102.967 124.078 102.421 123.602 101.329 123.602C100.918 123.602 100.582 123.691 100.321 123.868C100.06 124.036 99.8638 124.237 99.7332 124.47C99.7052 124.554 99.6678 124.615 99.6212 124.652C99.5838 124.689 99.5278 124.708 99.4532 124.708H98.8512C98.7672 124.708 98.6925 124.68 98.6272 124.624C98.5712 124.559 98.5432 124.484 98.5432 124.4C98.5525 124.176 98.6552 123.924 98.8512 123.644C99.0565 123.355 99.3692 123.107 99.7892 122.902C100.209 122.687 100.727 122.58 101.343 122.58C102.388 122.58 103.14 122.827 103.597 123.322C104.054 123.807 104.283 124.414 104.283 125.142V129.678C104.283 129.771 104.25 129.851 104.185 129.916C104.129 129.972 104.054 130 103.961 130H103.317C103.224 130 103.144 129.972 103.079 129.916C103.023 129.851 102.995 129.771 102.995 129.678V129.076C102.79 129.375 102.491 129.627 102.099 129.832C101.707 130.037 101.208 130.14 100.601 130.14ZM100.895 129.09C101.502 129.09 101.996 128.894 102.379 128.502C102.771 128.101 102.967 127.527 102.967 126.78V126.388L101.343 126.626C100.68 126.719 100.181 126.878 99.8452 127.102C99.5092 127.317 99.3412 127.592 99.3412 127.928C99.3412 128.301 99.4952 128.591 99.8032 128.796C100.111 128.992 100.475 129.09 100.895 129.09Z" fill="#545871"/>
<path d="M35.7268 121H21.2732C20.57 121 20 121.614 20 122.372V127H37V122.372C37 121.614 36.43 121 35.7268 121Z" fill="#EA4753"/>
<path d="M20 130.857C20 131.488 20.57 132 21.2732 132H35.7268C36.43 132 37 131.488 37 130.857V127H20V130.857Z" fill="#F5F5F5"/>
<path d="M0.72 107C0.624 107 0.54 106.964 0.468 106.892C0.396 106.82 0.36 106.736 0.36 106.64C0.36 106.544 0.366 106.478 0.378 106.442L4.842 94.796C4.938 94.532 5.13 94.4 5.418 94.4H6.642C6.93 94.4 7.122 94.532 7.218 94.796L11.664 106.442L11.7 106.64C11.7 106.736 11.664 106.82 11.592 106.892C11.52 106.964 11.436 107 11.34 107H10.422C10.29 107 10.188 106.97 10.116 106.91C10.044 106.838 9.996 106.766 9.972 106.694L8.982 104.138H3.078L2.088 106.694C2.064 106.766 2.01 106.838 1.926 106.91C1.854 106.97 1.758 107 1.638 107H0.72ZM8.46 102.59L6.03 96.2L3.6 102.59H8.46ZM17.1191 110.96C16.1351 110.96 15.3431 110.792 14.7431 110.456C14.1431 110.132 13.7171 109.76 13.4651 109.34C13.2131 108.92 13.0751 108.542 13.0511 108.206C13.0391 108.086 13.0751 107.984 13.1591 107.9C13.2551 107.816 13.3571 107.774 13.4651 107.774H14.3291C14.4371 107.774 14.5271 107.798 14.5991 107.846C14.6711 107.906 14.7311 108.008 14.7791 108.152C14.9231 108.536 15.1571 108.866 15.4811 109.142C15.8171 109.43 16.3331 109.574 17.0291 109.574C17.9171 109.574 18.5711 109.382 18.9911 108.998C19.4111 108.626 19.6211 107.96 19.6211 107V105.776C19.3091 106.172 18.9131 106.49 18.4331 106.73C17.9531 106.958 17.3831 107.072 16.7231 107.072C15.4511 107.072 14.4971 106.67 13.8611 105.866C13.2371 105.05 12.9071 104.018 12.8711 102.77L12.8531 102.266L12.8711 101.78C12.9071 100.544 13.2431 99.518 13.8791 98.702C14.5151 97.874 15.4631 97.46 16.7231 97.46C17.9831 97.46 18.9671 97.922 19.6751 98.846V98.072C19.6751 97.952 19.7111 97.85 19.7831 97.766C19.8671 97.682 19.9691 97.64 20.0891 97.64H20.9171C21.0371 97.64 21.1391 97.682 21.2231 97.766C21.3071 97.85 21.3491 97.952 21.3491 98.072V106.802C21.3491 109.574 19.9391 110.96 17.1191 110.96ZM17.0831 105.632C17.8991 105.632 18.5171 105.362 18.9371 104.822C19.3571 104.282 19.5851 103.64 19.6211 102.896C19.6331 102.788 19.6391 102.578 19.6391 102.266C19.6391 101.966 19.6331 101.762 19.6211 101.654C19.5851 100.91 19.3571 100.268 18.9371 99.728C18.5291 99.188 17.9111 98.918 17.0831 98.918C16.2311 98.918 15.6131 99.182 15.2291 99.71C14.8451 100.238 14.6351 100.934 14.5991 101.798L14.5811 102.266L14.5991 102.752C14.6351 103.604 14.8451 104.3 15.2291 104.84C15.6131 105.368 16.2311 105.632 17.0831 105.632ZM27.7694 107.18C26.5334 107.18 25.5434 106.802 24.7994 106.046C24.0674 105.278 23.6654 104.234 23.5934 102.914L23.5754 102.302L23.5934 101.708C23.6774 100.412 24.0854 99.38 24.8174 98.612C25.5614 97.844 26.5394 97.46 27.7514 97.46C29.0834 97.46 30.1154 97.886 30.8474 98.738C31.5794 99.578 31.9454 100.718 31.9454 102.158V102.464C31.9454 102.584 31.9034 102.686 31.8194 102.77C31.7474 102.842 31.6514 102.878 31.5314 102.878H25.3034V103.04C25.3394 103.82 25.5734 104.486 26.0054 105.038C26.4494 105.578 27.0314 105.848 27.7514 105.848C28.3034 105.848 28.7534 105.74 29.1014 105.524C29.4614 105.296 29.7254 105.062 29.8934 104.822C30.0014 104.678 30.0794 104.594 30.1274 104.57C30.1874 104.534 30.2894 104.516 30.4334 104.516H31.3154C31.4234 104.516 31.5134 104.546 31.5854 104.606C31.6574 104.666 31.6934 104.75 31.6934 104.858C31.6934 105.122 31.5254 105.44 31.1894 105.812C30.8654 106.184 30.4034 106.508 29.8034 106.784C29.2154 107.048 28.5374 107.18 27.7694 107.18ZM30.2354 101.636V101.582C30.2354 100.754 30.0074 100.082 29.5514 99.566C29.1074 99.038 28.5074 98.774 27.7514 98.774C26.9954 98.774 26.3954 99.038 25.9514 99.566C25.5194 100.082 25.3034 100.754 25.3034 101.582V101.636H30.2354ZM34.5116 107C34.3916 107 34.2896 106.964 34.2056 106.892C34.1336 106.808 34.0976 106.706 34.0976 106.586V98.054C34.0976 97.934 34.1336 97.838 34.2056 97.766C34.2896 97.682 34.3916 97.64 34.5116 97.64H35.3576C35.4776 97.64 35.5736 97.682 35.6456 97.766C35.7296 97.838 35.7716 97.934 35.7716 98.054V98.846C36.1196 98.402 36.5276 98.06 36.9956 97.82C37.4756 97.58 38.0696 97.46 38.7776 97.46C39.9296 97.46 40.8236 97.832 41.4596 98.576C42.1076 99.308 42.4316 100.286 42.4316 101.51V106.586C42.4316 106.706 42.3896 106.808 42.3056 106.892C42.2336 106.964 42.1376 107 42.0176 107H41.1176C40.9976 107 40.8956 106.964 40.8116 106.892C40.7396 106.808 40.7036 106.706 40.7036 106.586V101.6C40.7036 100.748 40.4936 100.088 40.0736 99.62C39.6656 99.152 39.0716 98.918 38.2916 98.918C37.5356 98.918 36.9356 99.158 36.4916 99.638C36.0476 100.106 35.8256 100.76 35.8256 101.6V106.586C35.8256 106.706 35.7836 106.808 35.6996 106.892C35.6276 106.964 35.5316 107 35.4116 107H34.5116ZM48.7936 107.18C47.5096 107.18 46.5016 106.82 45.7696 106.1C45.0496 105.368 44.6656 104.348 44.6176 103.04L44.5996 102.32L44.6176 101.6C44.6656 100.292 45.0496 99.278 45.7696 98.558C46.5016 97.826 47.5096 97.46 48.7936 97.46C49.6576 97.46 50.3896 97.616 50.9896 97.928C51.5896 98.24 52.0336 98.624 52.3216 99.08C52.6216 99.536 52.7836 99.992 52.8076 100.448C52.8196 100.568 52.7836 100.664 52.6996 100.736C52.6156 100.808 52.5136 100.844 52.3936 100.844H51.5296C51.4096 100.844 51.3196 100.82 51.2596 100.772C51.1996 100.724 51.1396 100.628 51.0796 100.484C50.8756 99.908 50.5876 99.5 50.2156 99.26C49.8436 99.008 49.3756 98.882 48.8116 98.882C48.0676 98.882 47.4736 99.116 47.0296 99.584C46.5976 100.04 46.3636 100.742 46.3276 101.69L46.3096 102.338L46.3276 102.95C46.3636 103.91 46.5976 104.618 47.0296 105.074C47.4616 105.53 48.0556 105.758 48.8116 105.758C49.3756 105.758 49.8436 105.638 50.2156 105.398C50.5876 105.146 50.8756 104.732 51.0796 104.156C51.1396 104.012 51.1996 103.916 51.2596 103.868C51.3196 103.808 51.4096 103.778 51.5296 103.778H52.3936C52.5136 103.778 52.6156 103.82 52.6996 103.904C52.7836 103.976 52.8196 104.072 52.8076 104.192C52.7836 104.636 52.6216 105.092 52.3216 105.56C52.0336 106.016 51.5896 106.4 50.9896 106.712C50.4016 107.024 49.6696 107.18 48.7936 107.18ZM56.3196 110.42C56.2236 110.42 56.1396 110.384 56.0676 110.312C55.9956 110.24 55.9596 110.156 55.9596 110.06C55.9596 109.976 55.9896 109.868 56.0496 109.736L57.4356 106.442L53.9976 98.324C53.9376 98.168 53.9076 98.066 53.9076 98.018C53.9076 97.91 53.9436 97.82 54.0156 97.748C54.0876 97.676 54.1776 97.64 54.2856 97.64H55.1676C55.3596 97.64 55.5036 97.742 55.5996 97.946L58.3356 104.498L61.1436 97.946C61.2396 97.742 61.3896 97.64 61.5936 97.64H62.4396C62.5476 97.64 62.6376 97.676 62.7096 97.748C62.7816 97.82 62.8176 97.904 62.8176 98C62.8176 98.036 62.7876 98.144 62.7276 98.324L57.6156 110.114C57.5196 110.318 57.3696 110.42 57.1656 110.42H56.3196ZM69.1988 107C69.0788 107 68.9768 106.964 68.8928 106.892C68.8208 106.808 68.7848 106.706 68.7848 106.586V94.832C68.7848 94.7 68.8208 94.598 68.8928 94.526C68.9768 94.442 69.0788 94.4 69.1988 94.4H73.2848C75.0968 94.4 76.4048 94.808 77.2088 95.624C78.0128 96.428 78.4328 97.646 78.4688 99.278C78.4808 99.626 78.4868 100.094 78.4868 100.682C78.4868 101.27 78.4808 101.744 78.4688 102.104C78.4328 103.244 78.2408 104.174 77.8928 104.894C77.5568 105.602 77.0228 106.13 76.2908 106.478C75.5588 106.826 74.5868 107 73.3748 107H69.1988ZM73.2848 105.47C74.1128 105.47 74.7668 105.356 75.2468 105.128C75.7388 104.9 76.0928 104.54 76.3087 104.048C76.5368 103.544 76.6628 102.872 76.6868 102.032C76.7108 101.312 76.7227 100.862 76.7227 100.682C76.7227 100.49 76.7108 100.046 76.6868 99.35C76.6628 98.162 76.3808 97.298 75.8408 96.758C75.3008 96.206 74.4188 95.93 73.1948 95.93H70.5488V105.47H73.2848ZM84.7049 107.18C83.4689 107.18 82.4789 106.802 81.7349 106.046C81.0029 105.278 80.6009 104.234 80.5289 102.914L80.5109 102.302L80.5289 101.708C80.6129 100.412 81.0209 99.38 81.7529 98.612C82.4969 97.844 83.4749 97.46 84.6869 97.46C86.0189 97.46 87.0509 97.886 87.7829 98.738C88.5149 99.578 88.8809 100.718 88.8809 102.158V102.464C88.8809 102.584 88.8389 102.686 88.7549 102.77C88.6829 102.842 88.5869 102.878 88.4669 102.878H82.2389V103.04C82.2749 103.82 82.5089 104.486 82.9409 105.038C83.3849 105.578 83.9669 105.848 84.6869 105.848C85.2389 105.848 85.6889 105.74 86.0369 105.524C86.3969 105.296 86.6609 105.062 86.8289 104.822C86.9369 104.678 87.0149 104.594 87.0629 104.57C87.1229 104.534 87.2249 104.516 87.3689 104.516H88.2509C88.3589 104.516 88.4489 104.546 88.5209 104.606C88.5929 104.666 88.6289 104.75 88.6289 104.858C88.6289 105.122 88.4609 105.44 88.1249 105.812C87.8009 106.184 87.3389 106.508 86.7389 106.784C86.1509 107.048 85.4729 107.18 84.7049 107.18ZM87.1709 101.636V101.582C87.1709 100.754 86.9429 100.082 86.4869 99.566C86.0429 99.038 85.4429 98.774 84.6869 98.774C83.9309 98.774 83.3309 99.038 82.8869 99.566C82.4549 100.082 82.2389 100.754 82.2389 101.582V101.636H87.1709ZM93.9748 107C93.6628 107 93.4408 106.85 93.3088 106.55L89.9788 98.198L89.9428 98.018C89.9428 97.91 89.9788 97.82 90.0508 97.748C90.1228 97.676 90.2128 97.64 90.3208 97.64H91.1848C91.3888 97.64 91.5388 97.742 91.6348 97.946L94.3708 105.038L97.1068 97.946C97.2148 97.742 97.3588 97.64 97.5388 97.64H98.4208C98.5168 97.64 98.6008 97.676 98.6728 97.748C98.7568 97.82 98.7988 97.91 98.7988 98.018L98.7628 98.198L95.4148 106.55C95.2828 106.85 95.0608 107 94.7488 107H93.9748Z" fill="#545871"/>
<path d="M115.482 106.43C120.019 106.43 123.697 102.752 123.697 98.215C123.697 93.678 120.019 90 115.482 90C110.945 90 107.267 93.678 107.267 98.215C107.267 102.752 110.945 106.43 115.482 106.43Z" fill="#FFD15C"/>
<path d="M108.827 103.021L106 107.921L109.299 107.745L110.798 110.69L113.413 106.157C111.539 105.672 109.93 104.544 108.827 103.021Z" fill="#DB5F44"/>
<path d="M122.153 102.997C121.057 104.524 119.449 105.656 117.579 106.149L120.202 110.69L121.701 107.746L125 107.921L122.153 102.997Z" fill="#DB5F44"/>
<path d="M115.482 104.17C118.771 104.17 121.436 101.504 121.436 98.215C121.436 94.9264 118.771 92.2604 115.482 92.2604C112.193 92.2604 109.527 94.9264 109.527 98.215C109.527 101.504 112.193 104.17 115.482 104.17Z" fill="#F8B64C"/>
<path d="M119.563 97.5715C119.746 97.3923 119.644 97.0787 119.392 97.042L117.042 96.6999C116.94 96.6836 116.854 96.6225 116.81 96.5288L115.759 94.3987C115.645 94.1666 115.315 94.1666 115.201 94.3987L114.154 96.5288C114.109 96.6184 114.02 96.6836 113.922 96.6999L111.572 97.042C111.319 97.0787 111.218 97.3923 111.401 97.5715L113.099 99.2291C113.173 99.3025 113.205 99.4043 113.189 99.502L112.79 101.84C112.745 102.092 113.014 102.288 113.242 102.166L115.343 101.062C115.433 101.013 115.543 101.013 115.633 101.062L117.734 102.166C117.962 102.284 118.227 102.092 118.186 101.84L117.783 99.502C117.767 99.4002 117.799 99.2984 117.873 99.2291L119.563 97.5715Z" fill="white"/>
<circle cx="61.9998" cy="42" r="36.0845" fill="#FEBD06"/>
<path fill-rule="evenodd" clip-rule="evenodd" d="M56.7223 59.3335C64.4856 59.3335 67.309 50.0392 71.7195 44.9388C74.8752 41.2896 80.2609 42.3777 81.8551 37.2688C85.8638 24.4221 75.1345 15.3803 61.1375 15.3803C47.1405 15.3803 37.7028 23.3102 35.665 35.231C33.6272 47.1518 42.7252 59.3335 56.7223 59.3335Z" fill="#191847"/>
<path fill-rule="evenodd" clip-rule="evenodd" d="M50.7605 76.3288L57.744 51.4794C54.7727 47.8696 52.7937 43.49 53.1368 38.6007C54.1567 24.0641 74.3922 27.2619 78.3284 34.5988C82.2646 41.9356 81.7969 60.5461 76.7097 61.8574C74.8468 62.3376 71.0503 61.2967 67.0363 59.0705L70.9212 76.9505C68.0411 77.6909 65.022 78.0846 61.9109 78.0846C58.0195 78.0846 54.272 77.4686 50.7605 76.3288Z" fill="#F09B9B"/>
<path fill-rule="evenodd" clip-rule="evenodd" d="M53.8136 25.6242C41.3265 37.851 53.8613 50.8466 57.2958 50.8466C57.5175 49.0825 58.1938 47.3665 59.1846 45.7332C58.6584 45.0516 58.3465 44.2039 58.3465 43.2852C58.3465 41.0343 60.2188 39.2096 62.5284 39.2096C63.2498 39.2096 63.9285 39.3876 64.5208 39.7009C69.5271 35.4314 75.8059 32.455 78.9236 31.8698C84.3461 30.8519 66.3007 13.3975 53.8136 25.6242Z" fill="#191847"/>
<path d="M103.75 42C103.75 65.0579 85.0579 83.75 62 83.75C38.9421 83.75 20.25 65.0579 20.25 42C20.25 18.9421 38.9421 0.25 62 0.25C85.0579 0.25 103.75 18.9421 103.75 42Z" stroke="black" stroke-opacity="0.1" stroke-width="0.5"/>
</svg>
