<svg width="192" height="176" viewBox="0 0 192 176" fill="none" xmlns="http://www.w3.org/2000/svg">
<path d="M121.99 123.993C120.61 123.993 119.218 123.525 118.09 122.553C115.57 120.393 115.282 116.613 117.442 114.093L126.093 104.002L117.442 93.9098C115.282 91.3899 115.57 87.61 118.09 85.45C120.622 83.2901 124.401 83.5781 126.549 86.098L138.549 100.102C140.469 102.358 140.469 105.67 138.549 107.913L126.549 121.917C125.361 123.285 123.682 123.993 121.99 123.993Z" fill="#6393D6"/>
<path d="M70.0069 123.993C68.3149 123.993 66.635 123.285 65.447 121.905L53.4473 107.901C51.5273 105.646 51.5273 102.334 53.4473 100.09L65.447 86.086C67.607 83.566 71.3869 83.278 73.9068 85.438C76.4268 87.5979 76.7148 91.3779 74.5548 93.8978L65.903 103.99L74.5548 114.081C76.7148 116.601 76.4268 120.381 73.9068 122.541C72.7669 123.513 71.3869 123.993 70.0069 123.993Z" fill="#6393D6"/>
<path d="M88.6546 135.837C85.4267 135.093 83.4107 131.865 84.1547 128.637L96.1544 76.6422C96.8984 73.4142 100.114 71.4223 103.354 72.1423C106.582 72.8862 108.598 76.1142 107.854 79.3421L95.8544 131.337C95.1104 134.505 91.9665 136.581 88.6546 135.837Z" fill="#6393D6"/>
<path d="M168 0H24C10.8 0 0 10.7998 0 23.9995V152.001C0 165.2 10.8 176 24 176H168C181.2 176 192 165.2 192 152.001V23.9995C192 10.7998 181.2 0 168 0ZM176.004 151.989C176.004 156.392 172.404 159.992 168 159.992H24C19.596 159.992 15.996 156.392 15.996 151.989V39.9951H175.992V151.989H176.004Z" fill="#416EAC"/>
</svg>
