<svg width="136" height="176" viewBox="0 0 136 176" fill="none" xmlns="http://www.w3.org/2000/svg">
<path d="M36.6643 80.6631C33.6283 80.6631 31.1643 78.1991 31.1643 75.1631V42.1631C31.1643 39.1271 33.6283 36.6631 36.6643 36.6631C39.7003 36.6631 42.1643 39.1271 42.1643 42.1631V75.1631C42.1643 78.1991 39.7003 80.6631 36.6643 80.6631Z" fill="#FF7F57"/>
<path d="M98.9893 80.663C95.9533 80.663 93.4893 78.199 93.4893 75.163V42.163C93.4893 39.127 95.9533 36.663 98.9893 36.663C102.025 36.663 104.489 39.127 104.489 42.163V75.163C104.489 78.199 102.025 80.663 98.9893 80.663Z" fill="#FF7F57"/>
<path d="M98.9893 139.337C95.9533 139.337 93.4893 136.873 93.4893 133.837V100.837C93.4893 97.801 95.9533 95.337 98.9893 95.337C102.025 95.337 104.489 97.801 104.489 100.837V133.837C104.489 136.873 102.025 139.337 98.9893 139.337Z" fill="#FF7F57"/>
<path d="M76.9893 139.337C73.9533 139.337 71.4893 136.873 71.4893 133.837V100.837C71.4893 97.801 73.9533 95.337 76.9893 95.337C80.0253 95.337 82.4893 97.801 82.4893 100.837V133.837C82.4893 136.873 80.0253 139.337 76.9893 139.337Z" fill="#FF7F57"/>
<path d="M71.4892 36.663H64.1522C57.1122 36.663 51.3152 42.46 51.3152 49.5V67.837C51.3152 74.877 57.1122 80.674 64.1522 80.674H71.4892C78.5292 80.674 84.3262 74.877 84.3262 67.837V49.5C84.3262 42.46 78.5292 36.663 71.4892 36.663ZM73.3262 67.837C73.3262 68.86 72.5232 69.674 71.4892 69.674H64.1522C63.1292 69.674 62.3152 68.871 62.3152 67.837V49.5C62.3152 48.477 63.1182 47.663 64.1522 47.663H71.4892C72.5122 47.663 73.3262 48.466 73.3262 49.5V67.837Z" fill="#FF7F57"/>
<path d="M51.3263 95.337H43.9893C36.9493 95.337 31.1523 101.134 31.1523 108.174V126.5C31.1523 133.54 36.9493 139.337 43.9893 139.337H51.3263C58.3663 139.337 64.1633 133.54 64.1633 126.5V108.163C64.1633 101.123 58.3663 95.337 51.3263 95.337ZM53.1633 126.5C53.1633 127.523 52.3603 128.337 51.3263 128.337H43.9893C42.9663 128.337 42.1523 127.534 42.1523 126.5V108.163C42.1523 107.14 42.9553 106.326 43.9893 106.326H51.3263C52.3493 106.326 53.1633 107.129 53.1633 108.163V126.5Z" fill="#FF7F57"/>
<path d="M113.663 0H22C9.9 0 0 9.9 0 22V154C0 166.1 9.9 176 22 176H113.663C125.763 176 135.663 166.1 135.663 154V22C135.663 9.9 125.763 0 113.663 0ZM120.989 154C120.989 158.037 117.689 161.337 113.652 161.337H21.989C17.952 161.337 14.652 158.037 14.652 154V22C14.652 17.963 17.952 14.663 21.989 14.663H113.652C117.689 14.663 120.989 17.963 120.989 22V154Z" fill="#FF6535"/>
</svg>
