<svg width="494" height="347" viewBox="0 0 494 347" fill="none" xmlns="http://www.w3.org/2000/svg">
<g filter="url(#filter0_d)">
<rect x="124" y="124" width="350" height="100" rx="25" fill="#FF6F42"/>
</g>
<path opacity="0.75" d="M413.92 161.31C414.04 161.31 414.133 161.34 414.2 161.4C414.267 161.46 414.3 161.543 414.3 161.65C414.3 161.763 414.267 161.85 414.2 161.91C414.14 161.97 414.047 162 413.92 162H410.61C410.483 162 410.387 161.97 410.32 161.91C410.26 161.85 410.23 161.763 410.23 161.65C410.23 161.543 410.263 161.46 410.33 161.4C410.397 161.34 410.49 161.31 410.61 161.31H411.85V155.95L410.76 156.66C410.707 156.693 410.653 156.71 410.6 156.71C410.507 156.71 410.423 156.667 410.35 156.58C410.283 156.493 410.25 156.4 410.25 156.3C410.25 156.16 410.303 156.06 410.41 156L411.93 155.01C412.043 154.937 412.16 154.9 412.28 154.9C412.393 154.9 412.487 154.937 412.56 155.01C412.633 155.083 412.67 155.187 412.67 155.32V161.31H413.92ZM419.916 161.31C420.036 161.31 420.129 161.34 420.196 161.4C420.263 161.46 420.296 161.543 420.296 161.65C420.296 161.763 420.263 161.85 420.196 161.91C420.136 161.97 420.043 162 419.916 162H416.606C416.479 162 416.383 161.97 416.316 161.91C416.256 161.85 416.226 161.763 416.226 161.65C416.226 161.543 416.259 161.46 416.326 161.4C416.393 161.34 416.486 161.31 416.606 161.31H417.846V155.95L416.756 156.66C416.703 156.693 416.649 156.71 416.596 156.71C416.503 156.71 416.419 156.667 416.346 156.58C416.279 156.493 416.246 156.4 416.246 156.3C416.246 156.16 416.299 156.06 416.406 156L417.926 155.01C418.039 154.937 418.156 154.9 418.276 154.9C418.389 154.9 418.483 154.937 418.556 155.01C418.629 155.083 418.666 155.187 418.666 155.32V161.31H419.916ZM422.142 158.15C421.982 158.15 421.849 158.1 421.742 158C421.636 157.893 421.582 157.757 421.582 157.59C421.582 157.423 421.636 157.29 421.742 157.19C421.849 157.083 421.982 157.03 422.142 157.03C422.296 157.03 422.422 157.083 422.522 157.19C422.629 157.29 422.682 157.423 422.682 157.59C422.682 157.757 422.629 157.893 422.522 158C422.422 158.1 422.296 158.15 422.142 158.15ZM422.142 162.05C421.982 162.05 421.849 162 421.742 161.9C421.636 161.793 421.582 161.657 421.582 161.49C421.582 161.323 421.636 161.187 421.742 161.08C421.849 160.973 421.982 160.92 422.142 160.92C422.296 160.92 422.422 160.973 422.522 161.08C422.629 161.187 422.682 161.323 422.682 161.49C422.682 161.657 422.629 161.793 422.522 161.9C422.422 162 422.296 162.05 422.142 162.05ZM426.277 162.08C425.471 162.08 424.857 161.773 424.437 161.16C424.017 160.547 423.807 159.653 423.807 158.48C423.807 157.3 424.017 156.403 424.437 155.79C424.857 155.177 425.471 154.87 426.277 154.87C427.084 154.87 427.697 155.177 428.117 155.79C428.537 156.397 428.747 157.29 428.747 158.47C428.747 159.65 428.537 160.547 428.117 161.16C427.697 161.773 427.084 162.08 426.277 162.08ZM426.277 161.39C426.837 161.39 427.251 161.153 427.517 160.68C427.784 160.207 427.917 159.47 427.917 158.47C427.917 157.463 427.784 156.727 427.517 156.26C427.257 155.793 426.844 155.56 426.277 155.56C425.717 155.56 425.304 155.797 425.037 156.27C424.771 156.737 424.637 157.47 424.637 158.47C424.637 159.47 424.771 160.207 425.037 160.68C425.304 161.153 425.717 161.39 426.277 161.39ZM434.353 161.31C434.473 161.31 434.567 161.34 434.633 161.4C434.7 161.46 434.733 161.543 434.733 161.65C434.733 161.883 434.607 162 434.353 162H430.433C430.32 162 430.227 161.967 430.153 161.9C430.08 161.827 430.043 161.74 430.043 161.64C430.043 161.513 430.09 161.403 430.183 161.31L432.593 158.66C432.927 158.287 433.167 157.953 433.313 157.66C433.467 157.36 433.543 157.06 433.543 156.76C433.543 156.373 433.43 156.077 433.203 155.87C432.983 155.663 432.67 155.56 432.263 155.56C431.943 155.56 431.637 155.62 431.343 155.74C431.05 155.853 430.757 156.03 430.463 156.27C430.363 156.35 430.27 156.39 430.183 156.39C430.11 156.39 430.047 156.357 429.993 156.29C429.94 156.217 429.913 156.13 429.913 156.03C429.913 155.89 429.967 155.777 430.073 155.69C430.347 155.437 430.68 155.237 431.073 155.09C431.467 154.943 431.87 154.87 432.283 154.87C432.917 154.87 433.42 155.037 433.793 155.37C434.173 155.703 434.363 156.153 434.363 156.72C434.363 157.127 434.27 157.517 434.083 157.89C433.903 158.263 433.603 158.68 433.183 159.14L431.183 161.31H434.353ZM444.788 161.53C444.814 161.583 444.828 161.64 444.828 161.7C444.828 161.8 444.788 161.883 444.708 161.95C444.634 162.017 444.544 162.05 444.438 162.05C444.271 162.05 444.154 161.97 444.088 161.81L443.378 160.19H439.608L438.888 161.81C438.821 161.97 438.704 162.05 438.538 162.05C438.431 162.05 438.338 162.017 438.258 161.95C438.178 161.877 438.138 161.79 438.138 161.69C438.138 161.637 438.151 161.583 438.178 161.53L441.038 155.17C441.078 155.077 441.138 155.007 441.218 154.96C441.298 154.913 441.384 154.89 441.478 154.89C441.578 154.89 441.668 154.917 441.748 154.97C441.828 155.017 441.888 155.083 441.928 155.17L444.788 161.53ZM443.078 159.51L441.488 155.92L439.908 159.51H443.078ZM452.243 154.9C452.37 154.9 452.467 154.94 452.533 155.02C452.607 155.093 452.643 155.193 452.643 155.32V161.65C452.643 161.77 452.61 161.867 452.543 161.94C452.477 162.013 452.383 162.05 452.263 162.05C452.143 162.05 452.053 162.013 451.993 161.94C451.933 161.867 451.903 161.77 451.903 161.65V156.54L449.733 160.7C449.64 160.893 449.503 160.99 449.323 160.99C449.15 160.99 449.013 160.893 448.913 160.7L446.733 156.59V161.65C446.733 161.77 446.7 161.867 446.633 161.94C446.573 162.013 446.483 162.05 446.363 162.05C446.243 162.05 446.15 162.013 446.083 161.94C446.017 161.867 445.983 161.77 445.983 161.65V155.32C445.983 155.193 446.02 155.093 446.093 155.02C446.167 154.94 446.267 154.9 446.393 154.9C446.56 154.9 446.693 154.997 446.793 155.19L449.333 160.06L451.843 155.19C451.897 155.083 451.953 155.01 452.013 154.97C452.08 154.923 452.157 154.9 452.243 154.9Z" fill="white"/>
<path d="M232.156 191C232.076 191 232.008 190.976 231.952 190.928C231.904 190.872 231.88 190.804 231.88 190.724V183.668H229.576C229.496 183.668 229.428 183.644 229.372 183.596C229.324 183.54 229.3 183.472 229.3 183.392V182.888C229.3 182.808 229.324 182.74 229.372 182.684C229.428 182.628 229.496 182.6 229.576 182.6H235.36C235.448 182.6 235.516 182.628 235.564 182.684C235.62 182.732 235.648 182.8 235.648 182.888V183.392C235.648 183.472 235.62 183.54 235.564 183.596C235.508 183.644 235.44 183.668 235.36 183.668H233.068V190.724C233.068 190.804 233.04 190.872 232.984 190.928C232.928 190.976 232.86 191 232.78 191H232.156ZM236.891 191C236.811 191 236.743 190.976 236.687 190.928C236.639 190.872 236.615 190.804 236.615 190.724V182.756C236.615 182.676 236.639 182.612 236.687 182.564C236.743 182.508 236.811 182.48 236.891 182.48H237.491C237.571 182.48 237.635 182.508 237.683 182.564C237.739 182.612 237.767 182.676 237.767 182.756V185.552C237.999 185.256 238.271 185.032 238.583 184.88C238.895 184.72 239.283 184.64 239.747 184.64C240.515 184.64 241.111 184.888 241.535 185.384C241.967 185.872 242.183 186.524 242.183 187.34V190.724C242.183 190.804 242.155 190.872 242.099 190.928C242.051 190.976 241.987 191 241.907 191H241.307C241.227 191 241.159 190.976 241.103 190.928C241.055 190.872 241.031 190.804 241.031 190.724V187.4C241.031 186.832 240.891 186.392 240.611 186.08C240.339 185.768 239.943 185.612 239.423 185.612C238.919 185.612 238.515 185.772 238.211 186.092C237.915 186.404 237.767 186.84 237.767 187.4V190.724C237.767 190.804 237.739 190.872 237.683 190.928C237.635 190.976 237.571 191 237.491 191H236.891ZM243.627 191C243.563 191 243.503 190.976 243.447 190.928C243.399 190.88 243.375 190.82 243.375 190.748C243.375 190.676 243.403 190.604 243.459 190.532L245.547 187.808L243.591 185.228C243.535 185.164 243.507 185.092 243.507 185.012C243.507 184.94 243.531 184.88 243.579 184.832C243.627 184.784 243.687 184.76 243.759 184.76H244.371C244.491 184.76 244.595 184.824 244.683 184.952L246.279 187.028L247.875 184.964C247.923 184.9 247.967 184.852 248.007 184.82C248.055 184.78 248.115 184.76 248.187 184.76H248.775C248.847 184.76 248.907 184.784 248.955 184.832C249.003 184.88 249.027 184.94 249.027 185.012C249.027 185.092 248.999 185.164 248.943 185.228L246.963 187.832L249.051 190.532C249.107 190.604 249.135 190.676 249.135 190.748C249.135 190.82 249.111 190.88 249.063 190.928C249.015 190.976 248.955 191 248.883 191H248.247C248.127 191 248.023 190.94 247.935 190.82L246.255 188.624L244.551 190.82C244.503 190.876 244.455 190.92 244.407 190.952C244.367 190.984 244.311 191 244.239 191H243.627ZM254.003 191C253.923 191 253.855 190.976 253.799 190.928C253.751 190.872 253.727 190.804 253.727 190.724V185.72H252.707C252.627 185.72 252.559 185.696 252.503 185.648C252.455 185.592 252.431 185.524 252.431 185.444V185.036C252.431 184.956 252.455 184.892 252.503 184.844C252.559 184.788 252.627 184.76 252.707 184.76H253.727V184.16C253.727 182.8 254.415 182.12 255.791 182.12H256.511C256.591 182.12 256.655 182.148 256.703 182.204C256.759 182.252 256.787 182.316 256.787 182.396V182.804C256.787 182.884 256.759 182.952 256.703 183.008C256.655 183.056 256.591 183.08 256.511 183.08H255.815C255.455 183.08 255.203 183.176 255.059 183.368C254.915 183.552 254.843 183.836 254.843 184.22V184.76H256.391C256.471 184.76 256.535 184.788 256.583 184.844C256.639 184.892 256.667 184.956 256.667 185.036V185.444C256.667 185.524 256.639 185.592 256.583 185.648C256.535 185.696 256.471 185.72 256.391 185.72H254.843V190.724C254.843 190.804 254.815 190.872 254.759 190.928C254.711 190.976 254.647 191 254.567 191H254.003ZM260.159 191.12C259.279 191.12 258.595 190.872 258.107 190.376C257.627 189.88 257.371 189.22 257.339 188.396L257.327 187.88L257.339 187.364C257.371 186.548 257.631 185.892 258.119 185.396C258.607 184.892 259.287 184.64 260.159 184.64C261.031 184.64 261.711 184.892 262.199 185.396C262.687 185.892 262.947 186.548 262.979 187.364C262.987 187.452 262.991 187.624 262.991 187.88C262.991 188.136 262.987 188.308 262.979 188.396C262.947 189.22 262.687 189.88 262.199 190.376C261.719 190.872 261.039 191.12 260.159 191.12ZM260.159 190.196C260.663 190.196 261.059 190.036 261.347 189.716C261.643 189.396 261.803 188.936 261.827 188.336C261.835 188.256 261.839 188.104 261.839 187.88C261.839 187.656 261.835 187.504 261.827 187.424C261.803 186.824 261.643 186.364 261.347 186.044C261.059 185.724 260.663 185.564 260.159 185.564C259.655 185.564 259.255 185.724 258.959 186.044C258.663 186.364 258.507 186.824 258.491 187.424L258.479 187.88L258.491 188.336C258.507 188.936 258.663 189.396 258.959 189.716C259.255 190.036 259.655 190.196 260.159 190.196ZM264.769 191C264.689 191 264.621 190.976 264.565 190.928C264.517 190.872 264.493 190.804 264.493 190.724V185.048C264.493 184.968 264.517 184.9 264.565 184.844C264.621 184.788 264.689 184.76 264.769 184.76H265.321C265.401 184.76 265.469 184.788 265.525 184.844C265.581 184.9 265.609 184.968 265.609 185.048V185.576C265.937 185.032 266.497 184.76 267.289 184.76H267.757C267.837 184.76 267.901 184.788 267.949 184.844C268.005 184.892 268.033 184.956 268.033 185.036V185.528C268.033 185.608 268.005 185.672 267.949 185.72C267.901 185.768 267.837 185.792 267.757 185.792H267.037C266.605 185.792 266.265 185.92 266.017 186.176C265.769 186.424 265.645 186.764 265.645 187.196V190.724C265.645 190.804 265.617 190.872 265.561 190.928C265.505 190.976 265.437 191 265.357 191H264.769ZM270.988 191C270.924 191 270.868 190.976 270.82 190.928C270.772 190.88 270.748 190.824 270.748 190.76C270.748 190.696 270.752 190.652 270.76 190.628L273.736 182.864C273.8 182.688 273.928 182.6 274.12 182.6H274.936C275.128 182.6 275.256 182.688 275.32 182.864L278.284 190.628L278.308 190.76C278.308 190.824 278.284 190.88 278.236 190.928C278.188 190.976 278.132 191 278.068 191H277.456C277.368 191 277.3 190.98 277.252 190.94C277.204 190.892 277.172 190.844 277.156 190.796L276.496 189.092H272.56L271.9 190.796C271.884 190.844 271.848 190.892 271.792 190.94C271.744 190.98 271.68 191 271.6 191H270.988ZM276.148 188.06L274.528 183.8L272.908 188.06H276.148ZM279.711 191C279.631 191 279.563 190.976 279.507 190.928C279.459 190.872 279.435 190.804 279.435 190.724V185.036C279.435 184.956 279.459 184.892 279.507 184.844C279.563 184.788 279.631 184.76 279.711 184.76H280.251C280.331 184.76 280.395 184.788 280.443 184.844C280.499 184.892 280.527 184.956 280.527 185.036V185.456C280.943 184.912 281.523 184.64 282.267 184.64C283.155 184.64 283.783 185.008 284.151 185.744C284.343 185.408 284.615 185.14 284.967 184.94C285.319 184.74 285.715 184.64 286.155 184.64C286.811 184.64 287.347 184.864 287.763 185.312C288.179 185.76 288.387 186.408 288.387 187.256V190.724C288.387 190.804 288.359 190.872 288.303 190.928C288.255 190.976 288.191 191 288.111 191H287.547C287.467 191 287.399 190.976 287.343 190.928C287.295 190.872 287.271 190.804 287.271 190.724V187.364C287.271 186.74 287.139 186.292 286.875 186.02C286.619 185.748 286.279 185.612 285.855 185.612C285.479 185.612 285.155 185.752 284.883 186.032C284.611 186.304 284.475 186.748 284.475 187.364V190.724C284.475 190.804 284.447 190.872 284.391 190.928C284.343 190.976 284.279 191 284.199 191H283.635C283.555 191 283.487 190.976 283.431 190.928C283.383 190.872 283.359 190.804 283.359 190.724V187.364C283.359 186.74 283.223 186.292 282.951 186.02C282.687 185.748 282.351 185.612 281.943 185.612C281.567 185.612 281.243 185.752 280.971 186.032C280.699 186.304 280.563 186.744 280.563 187.352V190.724C280.563 190.804 280.535 190.872 280.479 190.928C280.431 190.976 280.367 191 280.287 191H279.711ZM291.839 191.12C291.447 191.12 291.083 191.04 290.747 190.88C290.411 190.72 290.143 190.504 289.943 190.232C289.751 189.952 289.655 189.644 289.655 189.308C289.655 188.78 289.871 188.348 290.303 188.012C290.743 187.668 291.335 187.444 292.079 187.34L293.867 187.088V186.74C293.867 185.924 293.399 185.516 292.463 185.516C292.111 185.516 291.823 185.592 291.599 185.744C291.375 185.888 291.207 186.06 291.095 186.26C291.071 186.332 291.039 186.384 290.999 186.416C290.967 186.448 290.919 186.464 290.855 186.464H290.339C290.267 186.464 290.203 186.44 290.147 186.392C290.099 186.336 290.075 186.272 290.075 186.2C290.083 186.008 290.171 185.792 290.339 185.552C290.515 185.304 290.783 185.092 291.143 184.916C291.503 184.732 291.947 184.64 292.475 184.64C293.371 184.64 294.015 184.852 294.407 185.276C294.799 185.692 294.995 186.212 294.995 186.836V190.724C294.995 190.804 294.967 190.872 294.911 190.928C294.863 190.976 294.799 191 294.719 191H294.167C294.087 191 294.019 190.976 293.963 190.928C293.915 190.872 293.891 190.804 293.891 190.724V190.208C293.715 190.464 293.459 190.68 293.123 190.856C292.787 191.032 292.359 191.12 291.839 191.12ZM292.091 190.22C292.611 190.22 293.035 190.052 293.363 189.716C293.699 189.372 293.867 188.88 293.867 188.24V187.904L292.475 188.108C291.907 188.188 291.479 188.324 291.191 188.516C290.903 188.7 290.759 188.936 290.759 189.224C290.759 189.544 290.891 189.792 291.155 189.968C291.419 190.136 291.731 190.22 292.091 190.22ZM296.6 191C296.52 191 296.452 190.976 296.396 190.928C296.348 190.872 296.324 190.804 296.324 190.724V190.304C296.324 190.24 296.34 190.176 296.372 190.112C296.412 190.04 296.452 189.976 296.492 189.92L299.804 185.708H296.708C296.628 185.708 296.56 185.684 296.504 185.636C296.456 185.58 296.432 185.512 296.432 185.432V185.036C296.432 184.956 296.456 184.892 296.504 184.844C296.56 184.788 296.628 184.76 296.708 184.76H300.98C301.06 184.76 301.124 184.788 301.172 184.844C301.228 184.892 301.256 184.956 301.256 185.036V185.48C301.256 185.544 301.236 185.608 301.196 185.672C301.164 185.736 301.128 185.796 301.088 185.852L297.812 190.052H301.22C301.308 190.052 301.376 190.076 301.424 190.124C301.472 190.172 301.496 190.24 301.496 190.328V190.724C301.496 190.804 301.468 190.872 301.412 190.928C301.364 190.976 301.3 191 301.22 191H296.6ZM303.006 183.596C302.926 183.596 302.858 183.572 302.802 183.524C302.754 183.468 302.729 183.4 302.729 183.32V182.672C302.729 182.592 302.754 182.524 302.802 182.468C302.858 182.412 302.926 182.384 303.006 182.384H303.762C303.842 182.384 303.91 182.412 303.966 182.468C304.022 182.524 304.05 182.592 304.05 182.672V183.32C304.05 183.4 304.022 183.468 303.966 183.524C303.91 183.572 303.842 183.596 303.762 183.596H303.006ZM303.102 191C303.022 191 302.954 190.976 302.898 190.928C302.85 190.872 302.826 190.804 302.826 190.724V185.036C302.826 184.956 302.85 184.892 302.898 184.844C302.954 184.788 303.022 184.76 303.102 184.76H303.678C303.758 184.76 303.822 184.788 303.87 184.844C303.926 184.892 303.954 184.956 303.954 185.036V190.724C303.954 190.804 303.926 190.872 303.87 190.928C303.822 190.976 303.758 191 303.678 191H303.102ZM306.008 191C305.928 191 305.86 190.976 305.804 190.928C305.756 190.872 305.732 190.804 305.732 190.724V185.036C305.732 184.956 305.756 184.892 305.804 184.844C305.86 184.788 305.928 184.76 306.008 184.76H306.572C306.652 184.76 306.716 184.788 306.764 184.844C306.82 184.892 306.848 184.956 306.848 185.036V185.564C307.08 185.268 307.352 185.04 307.664 184.88C307.984 184.72 308.38 184.64 308.852 184.64C309.62 184.64 310.216 184.888 310.64 185.384C311.072 185.872 311.288 186.524 311.288 187.34V190.724C311.288 190.804 311.26 190.872 311.204 190.928C311.156 190.976 311.092 191 311.012 191H310.412C310.332 191 310.264 190.976 310.208 190.928C310.16 190.872 310.136 190.804 310.136 190.724V187.4C310.136 186.832 309.996 186.392 309.716 186.08C309.444 185.768 309.048 185.612 308.528 185.612C308.024 185.612 307.624 185.772 307.328 186.092C307.032 186.404 306.884 186.84 306.884 187.4V190.724C306.884 190.804 306.856 190.872 306.8 190.928C306.752 190.976 306.688 191 306.608 191H306.008ZM315.565 193.64C314.909 193.64 314.381 193.528 313.981 193.304C313.581 193.088 313.297 192.84 313.129 192.56C312.961 192.28 312.869 192.028 312.853 191.804C312.845 191.724 312.869 191.656 312.925 191.6C312.989 191.544 313.057 191.516 313.129 191.516H313.705C313.777 191.516 313.837 191.532 313.885 191.564C313.933 191.604 313.973 191.672 314.005 191.768C314.101 192.024 314.257 192.244 314.473 192.428C314.697 192.62 315.041 192.716 315.505 192.716C316.097 192.716 316.533 192.588 316.813 192.332C317.093 192.084 317.233 191.64 317.233 191V190.184C317.025 190.448 316.761 190.66 316.441 190.82C316.121 190.972 315.741 191.048 315.301 191.048C314.453 191.048 313.817 190.78 313.393 190.244C312.977 189.7 312.757 189.012 312.733 188.18L312.721 187.844L312.733 187.52C312.757 186.696 312.981 186.012 313.405 185.468C313.829 184.916 314.461 184.64 315.301 184.64C316.141 184.64 316.797 184.948 317.269 185.564V185.048C317.269 184.968 317.293 184.9 317.341 184.844C317.397 184.788 317.465 184.76 317.545 184.76H318.097C318.177 184.76 318.245 184.788 318.301 184.844C318.357 184.9 318.385 184.968 318.385 185.048V190.868C318.385 192.716 317.445 193.64 315.565 193.64ZM315.541 190.088C316.085 190.088 316.497 189.908 316.777 189.548C317.057 189.188 317.209 188.76 317.233 188.264C317.241 188.192 317.245 188.052 317.245 187.844C317.245 187.644 317.241 187.508 317.233 187.436C317.209 186.94 317.057 186.512 316.777 186.152C316.505 185.792 316.093 185.612 315.541 185.612C314.973 185.612 314.561 185.788 314.305 186.14C314.049 186.492 313.909 186.956 313.885 187.532L313.873 187.844L313.885 188.168C313.909 188.736 314.049 189.2 314.305 189.56C314.561 189.912 314.973 190.088 315.541 190.088ZM323.543 191C323.463 191 323.395 190.976 323.339 190.928C323.291 190.872 323.267 190.804 323.267 190.724V182.888C323.267 182.8 323.291 182.732 323.339 182.684C323.395 182.628 323.463 182.6 323.543 182.6H326.591C327.495 182.6 328.207 182.82 328.727 183.26C329.247 183.7 329.507 184.336 329.507 185.168C329.507 186 329.247 186.636 328.727 187.076C328.215 187.508 327.503 187.724 326.591 187.724H324.467V190.724C324.467 190.804 324.439 190.872 324.383 190.928C324.327 190.976 324.259 191 324.179 191H323.543ZM326.531 186.716C327.115 186.716 327.555 186.584 327.851 186.32C328.155 186.056 328.307 185.672 328.307 185.168C328.307 184.664 328.159 184.28 327.863 184.016C327.567 183.744 327.123 183.608 326.531 183.608H324.455V186.716H326.531ZM331.086 191C331.006 191 330.938 190.976 330.882 190.928C330.834 190.872 330.81 190.804 330.81 190.724V185.048C330.81 184.968 330.834 184.9 330.882 184.844C330.938 184.788 331.006 184.76 331.086 184.76H331.638C331.718 184.76 331.786 184.788 331.842 184.844C331.898 184.9 331.926 184.968 331.926 185.048V185.576C332.254 185.032 332.814 184.76 333.606 184.76H334.074C334.154 184.76 334.218 184.788 334.266 184.844C334.322 184.892 334.35 184.956 334.35 185.036V185.528C334.35 185.608 334.322 185.672 334.266 185.72C334.218 185.768 334.154 185.792 334.074 185.792H333.354C332.922 185.792 332.582 185.92 332.334 186.176C332.086 186.424 331.962 186.764 331.962 187.196V190.724C331.962 190.804 331.934 190.872 331.878 190.928C331.822 190.976 331.754 191 331.674 191H331.086ZM337.807 191.12C336.927 191.12 336.243 190.872 335.755 190.376C335.275 189.88 335.019 189.22 334.987 188.396L334.975 187.88L334.987 187.364C335.019 186.548 335.279 185.892 335.767 185.396C336.255 184.892 336.935 184.64 337.807 184.64C338.679 184.64 339.359 184.892 339.847 185.396C340.335 185.892 340.595 186.548 340.627 187.364C340.635 187.452 340.639 187.624 340.639 187.88C340.639 188.136 340.635 188.308 340.627 188.396C340.595 189.22 340.335 189.88 339.847 190.376C339.367 190.872 338.687 191.12 337.807 191.12ZM337.807 190.196C338.311 190.196 338.707 190.036 338.995 189.716C339.291 189.396 339.451 188.936 339.475 188.336C339.483 188.256 339.487 188.104 339.487 187.88C339.487 187.656 339.483 187.504 339.475 187.424C339.451 186.824 339.291 186.364 338.995 186.044C338.707 185.724 338.311 185.564 337.807 185.564C337.303 185.564 336.903 185.724 336.607 186.044C336.311 186.364 336.155 186.824 336.139 187.424L336.127 187.88L336.139 188.336C336.155 188.936 336.311 189.396 336.607 189.716C336.903 190.036 337.303 190.196 337.807 190.196ZM342.442 183.596C342.362 183.596 342.294 183.572 342.238 183.524C342.19 183.468 342.166 183.4 342.166 183.32V182.672C342.166 182.592 342.19 182.524 342.238 182.468C342.294 182.412 342.362 182.384 342.442 182.384H343.21C343.29 182.384 343.358 182.412 343.414 182.468C343.47 182.524 343.498 182.592 343.498 182.672V183.32C343.498 183.4 343.47 183.468 343.414 183.524C343.358 183.572 343.29 183.596 343.21 183.596H342.442ZM341.122 193.28C341.042 193.28 340.978 193.252 340.93 193.196C340.874 193.148 340.846 193.084 340.846 193.004V192.596C340.846 192.516 340.874 192.448 340.93 192.392C340.978 192.344 341.042 192.32 341.122 192.32H341.29C341.682 192.32 341.942 192.22 342.07 192.02C342.198 191.82 342.262 191.524 342.262 191.132V185.036C342.262 184.956 342.286 184.892 342.334 184.844C342.39 184.788 342.458 184.76 342.538 184.76H343.126C343.206 184.76 343.27 184.788 343.318 184.844C343.374 184.892 343.402 184.956 343.402 185.036V191.144C343.402 192.568 342.718 193.28 341.35 193.28H341.122ZM347.685 191.12C346.861 191.12 346.201 190.868 345.705 190.364C345.217 189.852 344.949 189.156 344.901 188.276L344.889 187.868L344.901 187.472C344.957 186.608 345.229 185.92 345.717 185.408C346.213 184.896 346.865 184.64 347.673 184.64C348.561 184.64 349.249 184.924 349.737 185.492C350.225 186.052 350.469 186.812 350.469 187.772V187.976C350.469 188.056 350.441 188.124 350.385 188.18C350.337 188.228 350.273 188.252 350.193 188.252H346.041V188.36C346.065 188.88 346.221 189.324 346.509 189.692C346.805 190.052 347.193 190.232 347.673 190.232C348.041 190.232 348.341 190.16 348.573 190.016C348.813 189.864 348.989 189.708 349.101 189.548C349.173 189.452 349.225 189.396 349.257 189.38C349.297 189.356 349.365 189.344 349.461 189.344H350.049C350.121 189.344 350.181 189.364 350.229 189.404C350.277 189.444 350.301 189.5 350.301 189.572C350.301 189.748 350.189 189.96 349.965 190.208C349.749 190.456 349.441 190.672 349.041 190.856C348.649 191.032 348.197 191.12 347.685 191.12ZM349.329 187.424V187.388C349.329 186.836 349.177 186.388 348.873 186.044C348.577 185.692 348.177 185.516 347.673 185.516C347.169 185.516 346.769 185.692 346.473 186.044C346.185 186.388 346.041 186.836 346.041 187.388V187.424H349.329ZM354.424 191.12C353.568 191.12 352.896 190.88 352.408 190.4C351.928 189.912 351.672 189.232 351.64 188.36L351.628 187.88L351.64 187.4C351.672 186.528 351.928 185.852 352.408 185.372C352.896 184.884 353.568 184.64 354.424 184.64C355 184.64 355.488 184.744 355.888 184.952C356.288 185.16 356.584 185.416 356.776 185.72C356.976 186.024 357.084 186.328 357.1 186.632C357.108 186.712 357.084 186.776 357.028 186.824C356.972 186.872 356.904 186.896 356.824 186.896H356.248C356.168 186.896 356.108 186.88 356.068 186.848C356.028 186.816 355.988 186.752 355.948 186.656C355.812 186.272 355.62 186 355.372 185.84C355.124 185.672 354.812 185.588 354.436 185.588C353.94 185.588 353.544 185.744 353.248 186.056C352.96 186.36 352.804 186.828 352.78 187.46L352.768 187.892L352.78 188.3C352.804 188.94 352.96 189.412 353.248 189.716C353.536 190.02 353.932 190.172 354.436 190.172C354.812 190.172 355.124 190.092 355.372 189.932C355.62 189.764 355.812 189.488 355.948 189.104C355.988 189.008 356.028 188.944 356.068 188.912C356.108 188.872 356.168 188.852 356.248 188.852H356.824C356.904 188.852 356.972 188.88 357.028 188.936C357.084 188.984 357.108 189.048 357.1 189.128C357.084 189.424 356.976 189.728 356.776 190.04C356.584 190.344 356.288 190.6 355.888 190.808C355.496 191.016 355.008 191.12 354.424 191.12ZM360.961 191C359.697 191 359.065 190.296 359.065 188.888V185.72H358.129C358.049 185.72 357.981 185.696 357.925 185.648C357.877 185.592 357.853 185.524 357.853 185.444V185.036C357.853 184.956 357.877 184.892 357.925 184.844C357.981 184.788 358.049 184.76 358.129 184.76H359.065V182.756C359.065 182.676 359.089 182.612 359.137 182.564C359.193 182.508 359.261 182.48 359.341 182.48H359.905C359.985 182.48 360.049 182.508 360.097 182.564C360.153 182.612 360.181 182.676 360.181 182.756V184.76H361.669C361.749 184.76 361.813 184.788 361.861 184.844C361.917 184.892 361.945 184.956 361.945 185.036V185.444C361.945 185.524 361.917 185.592 361.861 185.648C361.813 185.696 361.749 185.72 361.669 185.72H360.181V188.804C360.181 189.204 360.249 189.508 360.385 189.716C360.521 189.916 360.745 190.016 361.057 190.016H361.789C361.869 190.016 361.933 190.044 361.981 190.1C362.037 190.148 362.065 190.212 362.065 190.292V190.724C362.065 190.804 362.037 190.872 361.981 190.928C361.933 190.976 361.869 191 361.789 191H360.961ZM363.404 191C363.324 191 363.256 190.976 363.2 190.928C363.152 190.872 363.128 190.804 363.128 190.724V189.86C363.128 189.78 363.152 189.716 363.2 189.668C363.256 189.612 363.324 189.584 363.404 189.584H364.268C364.348 189.584 364.416 189.612 364.472 189.668C364.528 189.716 364.556 189.78 364.556 189.86V190.724C364.556 190.804 364.528 190.872 364.472 190.928C364.416 190.976 364.348 191 364.268 191H363.404ZM366.428 191C366.348 191 366.28 190.976 366.224 190.928C366.176 190.872 366.152 190.804 366.152 190.724V189.86C366.152 189.78 366.176 189.716 366.224 189.668C366.28 189.612 366.348 189.584 366.428 189.584H367.292C367.372 189.584 367.44 189.612 367.496 189.668C367.552 189.716 367.58 189.78 367.58 189.86V190.724C367.58 190.804 367.552 190.872 367.496 190.928C367.44 190.976 367.372 191 367.292 191H366.428ZM369.451 191C369.371 191 369.303 190.976 369.247 190.928C369.199 190.872 369.175 190.804 369.175 190.724V189.86C369.175 189.78 369.199 189.716 369.247 189.668C369.303 189.612 369.371 189.584 369.451 189.584H370.315C370.395 189.584 370.463 189.612 370.519 189.668C370.575 189.716 370.603 189.78 370.603 189.86V190.724C370.603 190.804 370.575 190.872 370.519 190.928C370.463 190.976 370.395 191 370.315 191H369.451Z" fill="white"/>
<path d="M233.992 168.16C233.171 168.16 232.408 168.021 231.704 167.744C231.011 167.456 230.451 167.035 230.024 166.48C229.608 165.925 229.389 165.259 229.368 164.48C229.368 164.384 229.4 164.304 229.464 164.24C229.528 164.165 229.613 164.128 229.72 164.128H231.88C232.019 164.128 232.125 164.165 232.2 164.24C232.285 164.315 232.36 164.427 232.424 164.576C232.595 165.429 233.144 165.856 234.072 165.856C234.605 165.856 235.016 165.68 235.304 165.328C235.592 164.976 235.736 164.469 235.736 163.808V159.184H230.552C230.445 159.184 230.349 159.147 230.264 159.072C230.189 158.987 230.152 158.891 230.152 158.784V157.2C230.152 157.083 230.189 156.987 230.264 156.912C230.349 156.837 230.445 156.8 230.552 156.8H238.296C238.413 156.8 238.509 156.837 238.584 156.912C238.669 156.987 238.712 157.083 238.712 157.2V163.888C238.712 164.795 238.515 165.568 238.12 166.208C237.725 166.848 237.171 167.333 236.456 167.664C235.741 167.995 234.92 168.16 233.992 168.16ZM244.614 168.16C243.292 168.16 242.273 167.845 241.558 167.216C240.844 166.587 240.454 165.701 240.39 164.56C240.38 164.421 240.374 164.181 240.374 163.84C240.374 163.499 240.38 163.259 240.39 163.12C240.454 161.989 240.854 161.109 241.59 160.48C242.326 159.84 243.334 159.52 244.614 159.52C245.905 159.52 246.918 159.84 247.654 160.48C248.39 161.109 248.79 161.989 248.854 163.12C248.865 163.259 248.87 163.499 248.87 163.84C248.87 164.181 248.865 164.421 248.854 164.56C248.79 165.701 248.401 166.587 247.686 167.216C246.972 167.845 245.948 168.16 244.614 168.16ZM244.614 166.208C245.084 166.208 245.43 166.069 245.654 165.792C245.878 165.504 246.006 165.067 246.038 164.48C246.049 164.373 246.054 164.16 246.054 163.84C246.054 163.52 246.049 163.307 246.038 163.2C246.006 162.624 245.873 162.192 245.638 161.904C245.414 161.616 245.073 161.472 244.614 161.472C243.729 161.472 243.26 162.048 243.206 163.2L243.19 163.84L243.206 164.48C243.228 165.067 243.35 165.504 243.574 165.792C243.809 166.069 244.156 166.208 244.614 166.208ZM250.86 168C250.753 168 250.657 167.963 250.572 167.888C250.497 167.803 250.46 167.707 250.46 167.6V157.04C250.46 156.923 250.497 156.827 250.572 156.752C250.657 156.677 250.753 156.64 250.86 156.64H252.908C253.025 156.64 253.121 156.677 253.196 156.752C253.27 156.827 253.308 156.923 253.308 157.04V160.608C253.948 159.883 254.79 159.52 255.836 159.52C256.454 159.52 257.004 159.659 257.484 159.936C257.974 160.213 258.358 160.624 258.636 161.168C258.913 161.712 259.052 162.368 259.052 163.136V167.6C259.052 167.707 259.014 167.803 258.94 167.888C258.865 167.963 258.769 168 258.652 168H256.588C256.481 168 256.385 167.963 256.3 167.888C256.225 167.803 256.188 167.707 256.188 167.6V163.232C256.188 162.731 256.065 162.347 255.82 162.08C255.585 161.803 255.238 161.664 254.78 161.664C254.321 161.664 253.958 161.803 253.692 162.08C253.436 162.347 253.308 162.731 253.308 163.232V167.6C253.308 167.717 253.27 167.813 253.196 167.888C253.121 167.963 253.025 168 252.908 168H250.86ZM261.266 168C261.149 168 261.053 167.963 260.978 167.888C260.903 167.813 260.866 167.717 260.866 167.6V160.08C260.866 159.963 260.903 159.867 260.978 159.792C261.053 159.717 261.149 159.68 261.266 159.68H263.106C263.223 159.68 263.319 159.717 263.394 159.792C263.479 159.867 263.522 159.963 263.522 160.08V160.688C263.81 160.336 264.178 160.053 264.626 159.84C265.085 159.627 265.602 159.52 266.178 159.52C267.117 159.52 267.879 159.84 268.466 160.48C269.053 161.109 269.346 161.995 269.346 163.136V167.6C269.346 167.707 269.309 167.803 269.234 167.888C269.159 167.963 269.063 168 268.946 168H266.93C266.823 168 266.727 167.963 266.642 167.888C266.567 167.803 266.53 167.707 266.53 167.6V163.232C266.53 162.731 266.407 162.347 266.162 162.08C265.917 161.803 265.565 161.664 265.106 161.664C264.658 161.664 264.306 161.803 264.05 162.08C263.794 162.347 263.666 162.731 263.666 163.232V167.6C263.666 167.707 263.629 167.803 263.554 167.888C263.479 167.963 263.383 168 263.266 168H261.266ZM278.905 168.16C277.892 168.16 277.023 168.011 276.297 167.712C275.572 167.413 275.023 167.024 274.649 166.544C274.287 166.053 274.095 165.52 274.073 164.944C274.073 164.859 274.105 164.784 274.169 164.72C274.244 164.645 274.329 164.608 274.425 164.608H276.441C276.569 164.608 276.671 164.635 276.745 164.688C276.831 164.731 276.916 164.8 277.001 164.896C277.14 165.173 277.364 165.403 277.673 165.584C277.983 165.765 278.393 165.856 278.905 165.856C279.513 165.856 279.977 165.76 280.297 165.568C280.617 165.376 280.777 165.115 280.777 164.784C280.777 164.549 280.692 164.357 280.521 164.208C280.361 164.059 280.105 163.925 279.753 163.808C279.401 163.691 278.879 163.557 278.185 163.408C276.905 163.141 275.945 162.752 275.305 162.24C274.676 161.717 274.361 160.976 274.361 160.016C274.361 159.365 274.543 158.784 274.905 158.272C275.268 157.76 275.785 157.36 276.457 157.072C277.129 156.784 277.913 156.64 278.809 156.64C279.737 156.64 280.543 156.8 281.225 157.12C281.908 157.44 282.425 157.845 282.777 158.336C283.14 158.816 283.332 159.291 283.353 159.76C283.353 159.856 283.321 159.936 283.257 160C283.193 160.064 283.113 160.096 283.017 160.096H280.905C280.777 160.096 280.671 160.075 280.585 160.032C280.511 159.989 280.441 159.92 280.377 159.824C280.313 159.579 280.137 159.371 279.849 159.2C279.572 159.029 279.225 158.944 278.809 158.944C278.329 158.944 277.961 159.029 277.705 159.2C277.449 159.371 277.321 159.621 277.321 159.952C277.321 160.176 277.391 160.363 277.529 160.512C277.679 160.661 277.913 160.8 278.233 160.928C278.564 161.045 279.033 161.168 279.641 161.296C280.633 161.477 281.423 161.707 282.009 161.984C282.607 162.251 283.044 162.603 283.321 163.04C283.599 163.467 283.737 164.005 283.737 164.656C283.737 165.371 283.529 165.995 283.113 166.528C282.708 167.051 282.137 167.456 281.401 167.744C280.676 168.021 279.844 168.16 278.905 168.16ZM285.563 168C285.445 168 285.349 167.963 285.275 167.888C285.2 167.813 285.163 167.717 285.163 167.6V160.08C285.163 159.963 285.2 159.867 285.275 159.792C285.349 159.717 285.445 159.68 285.563 159.68H287.307C287.424 159.68 287.52 159.717 287.595 159.792C287.669 159.867 287.707 159.963 287.707 160.08V160.624C287.952 160.304 288.277 160.043 288.683 159.84C289.099 159.627 289.563 159.52 290.075 159.52C291.248 159.52 292.059 159.979 292.507 160.896C292.763 160.491 293.12 160.16 293.579 159.904C294.037 159.648 294.528 159.52 295.051 159.52C295.925 159.52 296.635 159.819 297.179 160.416C297.733 161.003 298.011 161.883 298.011 163.056V167.6C298.011 167.707 297.973 167.803 297.899 167.888C297.824 167.963 297.728 168 297.611 168H295.755C295.637 168 295.536 167.963 295.451 167.888C295.376 167.813 295.339 167.717 295.339 167.6V163.168C295.339 162.635 295.227 162.251 295.003 162.016C294.789 161.781 294.496 161.664 294.123 161.664C293.781 161.664 293.499 161.787 293.275 162.032C293.051 162.267 292.939 162.645 292.939 163.168V167.6C292.939 167.707 292.901 167.803 292.827 167.888C292.752 167.963 292.656 168 292.539 168H290.683C290.565 168 290.469 167.963 290.395 167.888C290.32 167.813 290.283 167.717 290.283 167.6V163.168C290.283 162.645 290.165 162.267 289.931 162.032C289.707 161.787 289.419 161.664 289.067 161.664C288.725 161.664 288.437 161.787 288.203 162.032C287.979 162.267 287.867 162.64 287.867 163.152V167.6C287.867 167.707 287.829 167.803 287.755 167.888C287.68 167.963 287.584 168 287.467 168H285.563ZM300.203 158.48C300.086 158.48 299.99 158.443 299.915 158.368C299.84 158.293 299.803 158.197 299.803 158.08V156.64C299.803 156.523 299.84 156.427 299.915 156.352C299.99 156.277 300.086 156.24 300.203 156.24H302.123C302.24 156.24 302.336 156.277 302.411 156.352C302.486 156.427 302.523 156.523 302.523 156.64V158.08C302.523 158.197 302.486 158.293 302.411 158.368C302.336 158.443 302.24 158.48 302.123 158.48H300.203ZM300.219 168C300.102 168 300.006 167.963 299.931 167.888C299.856 167.813 299.819 167.717 299.819 167.6V160.08C299.819 159.963 299.856 159.867 299.931 159.792C300.006 159.717 300.102 159.68 300.219 159.68H302.107C302.224 159.68 302.32 159.717 302.395 159.792C302.47 159.867 302.507 159.963 302.507 160.08V167.6C302.507 167.707 302.47 167.803 302.395 167.888C302.32 167.963 302.224 168 302.107 168H300.219ZM308.653 168C306.445 168 305.341 166.949 305.341 164.848V161.776H304.093C303.976 161.776 303.874 161.739 303.789 161.664C303.714 161.589 303.677 161.493 303.677 161.376V160.08C303.677 159.963 303.714 159.867 303.789 159.792C303.874 159.717 303.976 159.68 304.093 159.68H305.341V157.04C305.341 156.923 305.378 156.827 305.453 156.752C305.538 156.677 305.634 156.64 305.741 156.64H307.597C307.714 156.64 307.81 156.677 307.885 156.752C307.96 156.827 307.997 156.923 307.997 157.04V159.68H309.997C310.114 159.68 310.21 159.717 310.285 159.792C310.37 159.867 310.413 159.963 310.413 160.08V161.376C310.413 161.493 310.37 161.589 310.285 161.664C310.21 161.739 310.114 161.776 309.997 161.776H307.997V164.624C307.997 165.413 308.301 165.808 308.909 165.808H310.141C310.258 165.808 310.354 165.845 310.429 165.92C310.504 165.995 310.541 166.091 310.541 166.208V167.6C310.541 167.707 310.504 167.803 310.429 167.888C310.354 167.963 310.258 168 310.141 168H308.653ZM312.266 168C312.159 168 312.063 167.963 311.978 167.888C311.903 167.803 311.866 167.707 311.866 167.6V157.04C311.866 156.923 311.903 156.827 311.978 156.752C312.063 156.677 312.159 156.64 312.266 156.64H314.314C314.431 156.64 314.527 156.677 314.602 156.752C314.677 156.827 314.714 156.923 314.714 157.04V160.608C315.354 159.883 316.197 159.52 317.242 159.52C317.861 159.52 318.41 159.659 318.89 159.936C319.381 160.213 319.765 160.624 320.042 161.168C320.319 161.712 320.458 162.368 320.458 163.136V167.6C320.458 167.707 320.421 167.803 320.346 167.888C320.271 167.963 320.175 168 320.058 168H317.994C317.887 168 317.791 167.963 317.706 167.888C317.631 167.803 317.594 167.707 317.594 167.6V163.232C317.594 162.731 317.471 162.347 317.226 162.08C316.991 161.803 316.645 161.664 316.186 161.664C315.727 161.664 315.365 161.803 315.098 162.08C314.842 162.347 314.714 162.731 314.714 163.232V167.6C314.714 167.717 314.677 167.813 314.602 167.888C314.527 167.963 314.431 168 314.314 168H312.266Z" fill="white"/>
<g opacity="0.1" filter="url(#filter1_f)">
<rect x="136" y="136" width="75" height="75" rx="20" fill="url(#paint0_linear)"/>
</g>
<rect x="136" y="136" width="75" height="75" rx="20" fill="white"/>
<path fill-rule="evenodd" clip-rule="evenodd" d="M184.575 160H163.125C160.847 160 159 161.847 159 164.125V177.325C159 179.603 160.847 181.45 163.125 181.45H165.6V187.189C165.6 187.203 165.617 187.21 165.627 187.201L172.2 181.45H184.575C186.853 181.45 188.7 179.603 188.7 177.325V164.125C188.7 161.847 186.853 160 184.575 160Z" stroke="#FF6F42" stroke-width="3" stroke-linecap="round"/>
<defs>
<filter id="filter0_d" x="104" y="112" width="390" height="140" filterUnits="userSpaceOnUse" color-interpolation-filters="sRGB">
<feFlood flood-opacity="0" result="BackgroundImageFix"/>
<feColorMatrix in="SourceAlpha" type="matrix" values="0 0 0 0 0 0 0 0 0 0 0 0 0 0 0 0 0 0 127 0" result="hardAlpha"/>
<feOffset dy="8"/>
<feGaussianBlur stdDeviation="10"/>
<feColorMatrix type="matrix" values="0 0 0 0 0 0 0 0 0 0.227451 0 0 0 0 0.321569 0 0 0 0.1 0"/>
<feBlend mode="normal" in2="BackgroundImageFix" result="effect1_dropShadow"/>
<feBlend mode="normal" in="SourceGraphic" in2="effect1_dropShadow" result="shape"/>
</filter>
<filter id="filter1_f" x="0.085907" y="0.085907" width="346.828" height="346.828" filterUnits="userSpaceOnUse" color-interpolation-filters="sRGB">
<feFlood flood-opacity="0" result="BackgroundImageFix"/>
<feBlend mode="normal" in="SourceGraphic" in2="BackgroundImageFix" result="shape"/>
<feGaussianBlur stdDeviation="67.957" result="effect1_foregroundBlur"/>
</filter>
<linearGradient id="paint0_linear" x1="192.796" y1="238.448" x2="252.61" y2="151.591" gradientUnits="userSpaceOnUse">
<stop stop-color="#234CAD"/>
<stop offset="1" stop-color="#234CAD" stop-opacity="0.5"/>
</linearGradient>
</defs>
</svg>
