<svg width="192" height="176" viewBox="0 0 192 176" fill="none" xmlns="http://www.w3.org/2000/svg">
<path d="M44.0045 67.9906H30.0005C26.6885 67.9906 24.0005 65.3026 24.0005 61.9907C24.0005 58.6788 26.6885 55.9908 30.0005 55.9908H44.0045C47.3165 55.9908 50.0045 58.6788 50.0045 61.9907C50.0045 65.3026 47.3165 67.9906 44.0045 67.9906Z" fill="#F5D781"/>
<path d="M44.004 151.989H30C26.688 151.989 24 149.301 24 145.989C24 142.677 26.688 139.989 30 139.989H44.004C47.316 139.989 50.004 142.677 50.004 145.989C50.004 149.301 47.316 151.989 44.004 151.989Z" fill="#F5D781"/>
<path d="M89.9999 87.9942H38.0039C34.6919 87.9942 32.0039 85.3063 32.0039 81.9944C32.0039 78.6824 34.6919 75.9945 38.0039 75.9945H89.9999C93.3119 75.9945 95.9999 78.6824 95.9999 81.9944C95.9999 85.3063 93.3119 87.9942 89.9999 87.9942Z" fill="#F5D781"/>
<path d="M162 107.998H45.9958C42.6838 107.998 39.9958 105.31 39.9958 101.998C39.9958 98.6859 42.6838 95.9979 45.9958 95.9979H162C165.312 95.9979 168 98.6859 168 101.998C168 105.31 165.312 107.998 162 107.998Z" fill="#F5D781"/>
<path d="M89.9999 131.997H38.0039C34.6919 131.997 32.0039 129.309 32.0039 125.997C32.0039 122.685 34.6919 119.997 38.0039 119.997H89.9999C93.3119 119.997 95.9999 122.685 95.9999 125.997C95.9999 129.309 93.3119 131.997 89.9999 131.997Z" fill="#F5D781"/>
<path d="M168 0H24C10.8 0 0 10.7998 0 23.9995V152.001C0 165.2 10.8 176 24 176H168C181.2 176 192 165.2 192 152.001V23.9995C192 10.7998 181.2 0 168 0ZM176.004 151.989C176.004 156.392 172.404 159.992 168 159.992H24C19.596 159.992 15.996 156.392 15.996 151.989V39.9951H175.992V151.989H176.004Z" fill="#E0A500"/>
</svg>
