<svg width="228" height="454" viewBox="0 0 228 454" fill="none" xmlns="http://www.w3.org/2000/svg">
<path d="M202.11 0.28833H25.0387C11.2102 0.28833 0 11.3427 0 24.9788V429.309C0 442.946 11.2102 454 25.0387 454H202.11C215.938 454 227.149 442.946 227.149 429.309V24.9788C227.149 11.3427 215.938 0.28833 202.11 0.28833Z" fill="white"/>
<path d="M196.821 13.4607H32.0717C22.0594 13.4607 13.9429 21.4643 13.9429 31.3374V423.518C13.9429 433.391 22.0594 441.394 32.0717 441.394H196.821C206.833 441.394 214.95 433.391 214.95 423.518V31.3374C214.95 21.4643 206.833 13.4607 196.821 13.4607Z" fill="#F5F5F5"/>
<path d="M158.963 0H68.7652C62.7108 0 57.8027 4.8398 57.8027 10.81V16.1164C57.8027 22.0866 62.7108 26.9264 68.7652 26.9264H158.963C165.017 26.9264 169.925 22.0866 169.925 16.1164V10.81C169.925 4.8398 165.017 0 158.963 0Z" fill="white"/>
<path d="M66.2261 433.665H162.667" stroke="#E2E2E2" stroke-width="6.79" stroke-linecap="round" stroke-linejoin="round"/>
</svg>
